<svg xmlns="http://www.w3.org/2000/svg" version="1.1" xmlns:xlink="http://www.w3.org/1999/xlink" xmlns:svgjs="http://svgjs.dev/svgjs" width="1500" height="306" viewBox="0 0 1500 306"><g transform="matrix(1,0,0,1,-0.9090909090909918,-0.5090896513967778)"><svg viewBox="0 0 396 81" data-background-color="#ffffff" preserveAspectRatio="xMidYMid meet" height="306" width="1500" xmlns="http://www.w3.org/2000/svg" xmlns:xlink="http://www.w3.org/1999/xlink"><g id="tight-bounds" transform="matrix(1,0,0,1,0.2400000000000091,0.13475902536973194)"><svg viewBox="0 0 395.52 80.73048194926052" height="80.73048194926052" width="395.52"><g><svg viewBox="0 0 661.0512372398256 134.92866346967557" height="80.73048194926052" width="395.52"><g><rect width="5.550653967121693" height="134.92866346967557" x="245.45007550536963" y="0" fill="#e8772e" opacity="1" stroke-width="0" stroke="transparent" fill-opacity="1" class="rect-yte-0" data-fill-palette-color="primary" rx="1%" id="yte-0" data-palette-color="#e8772e"></rect></g><g transform="matrix(1,0,0,1,265.5312372398256,0.3356434414668428)"><svg viewBox="0 0 395.52 134.25737658674188" height="134.25737658674188" width="395.52"><g id="textblocktransform"><svg viewBox="0 0 395.52 134.25737658674188" height="134.25737658674188" width="395.52" id="textblock"><g><svg viewBox="0 0 395.52 134.25737658674188" height="134.25737658674188" width="395.52"><g transform="matrix(1,0,0,1,0,0)"><svg width="395.52" viewBox="0.4500000000000024 -32.45 212.70000000000013 69.05000000000001" height="134.25737658674188" data-palette-color="#e8772e"><svg></svg><svg></svg><g class="wordmark-text-0" data-fill-palette-color="primary" id="text-0"><path d="M6.25 0.2l0.4-2.15c1.667-0.133 2.817-0.343 3.45-0.63 0.633-0.28 1.05-0.797 1.25-1.55 0.2-0.747 0.3-2.07 0.3-3.97v0-21.8c-2.833 0.1-4.757 0.257-5.77 0.47-1.02 0.22-1.713 0.703-2.08 1.45-0.367 0.753-0.7 2.213-1 4.38v0l-2.35 0.2c0.4-3.167 0.65-6.05 0.75-8.65v0l0.45-0.4 4.15 0.55h15.5l4.25-0.55 0.45 0.4c0.1 2.733 0.35 5.55 0.75 8.45v0l-2.35 0.2c-0.367-2.2-0.733-3.683-1.1-4.45-0.367-0.767-1.017-1.267-1.95-1.5-0.933-0.233-2.733-0.417-5.4-0.55v0c-0.2 2-0.383 5.533-0.55 10.6-0.167 5.067-0.25 9.633-0.25 13.7v0c0 1.233 0.217 2.107 0.65 2.62 0.433 0.52 1.167 0.78 2.2 0.78v0c1 0 1.917-0.05 2.75-0.15v0l0.15 0.2-0.45 2.3-1.65-0.05-5.7-0.1c-1.833 0-4.117 0.067-6.85 0.2zM48.85 0.6c-0.733 0-1.483-0.327-2.25-0.98-0.767-0.647-1.467-1.537-2.1-2.67v0l-4.2-7.35h-3.25l-0.1 5.35c0 0.967 0.067 1.657 0.2 2.07 0.133 0.42 0.39 0.697 0.77 0.83 0.387 0.133 1.047 0.217 1.98 0.25v0l0.1 0.15-0.4 1.9c-0.4-0.033-1.127-0.057-2.18-0.07-1.047-0.02-2.103-0.03-3.17-0.03v0c-1.033 0-1.933 0.017-2.7 0.05-0.767 0.033-1.283 0.067-1.55 0.1v0l0.35-2.05c1.233-0.167 2.05-0.45 2.45-0.85 0.4-0.4 0.6-1.15 0.6-2.25v0l0.05-15.95c0-0.8-0.1-1.343-0.3-1.63-0.2-0.28-0.583-0.42-1.15-0.42v0l-1.4 0.05-0.15-0.2 0.3-1.9c0.333 0 0.967 0.017 1.9 0.05 0.933 0.033 1.867 0.05 2.8 0.05v0c0.967 0 2-0.027 3.1-0.08 1.1-0.047 1.85-0.07 2.25-0.07v0c2.7 0 4.817 0.557 6.35 1.67 1.533 1.12 2.3 2.663 2.3 4.63v0c0 1.533-0.517 2.95-1.55 4.25-1.033 1.3-2.483 2.367-4.35 3.2v0l4.25 6.4c0.8 1.2 1.567 2.05 2.3 2.55 0.733 0.5 1.617 0.75 2.65 0.75v0l0.2 0.25-0.25 1.55zM41.2-12.6c0.633-0.267 1.193-0.527 1.68-0.78 0.48-0.247 1.02-0.77 1.62-1.57 0.6-0.8 0.9-1.833 0.9-3.1v0c0-3.233-2.383-4.85-7.15-4.85v0c-0.267 0-0.45 0.057-0.55 0.17-0.1 0.12-0.15 0.363-0.15 0.73v0c-0.267 4.067-0.4 7.067-0.4 9v0zM66.6 0.45c-2.967 0-5.223-0.733-6.77-2.2-1.553-1.467-2.33-3.583-2.33-6.35v0-12.75c0-0.833-0.1-1.393-0.3-1.68-0.2-0.28-0.6-0.42-1.2-0.42v0l-1.35 0.05-0.1-0.15 0.3-1.95c0.367 0 1.033 0.017 2 0.05 0.967 0.033 1.95 0.05 2.95 0.05v0c0.733 0 1.583-0.043 2.55-0.13 0.967-0.08 1.6-0.137 1.9-0.17v0l-0.2 2c-0.967 0.133-1.617 0.35-1.95 0.65-0.333 0.3-0.533 0.817-0.6 1.55v0l-0.3 11.45c0 2.367 0.55 4.19 1.65 5.47 1.1 1.287 2.683 1.93 4.75 1.93v0c2.1 0 3.693-0.527 4.78-1.58 1.08-1.047 1.62-2.57 1.62-4.57v0c0-2.067-0.027-4.41-0.08-7.03-0.047-2.613-0.087-4.453-0.12-5.52v0c-0.067-0.9-0.183-1.477-0.35-1.73-0.167-0.247-0.533-0.37-1.1-0.37v0l-1.7 0.05-0.05-0.15 0.3-1.95c0.333 0 0.96 0.017 1.88 0.05 0.913 0.033 1.837 0.05 2.77 0.05v0c0.767 0 1.593-0.043 2.48-0.13 0.88-0.08 1.453-0.137 1.72-0.17v0l-0.15 2c-1.167 0.167-1.917 0.383-2.25 0.65-0.333 0.267-0.5 0.767-0.5 1.5v0 12.8c0 2.767-0.893 4.907-2.68 6.42-1.78 1.52-4.303 2.28-7.57 2.28zM91.05 0.45c-1.167 0-2.24-0.1-3.22-0.3-0.987-0.2-1.773-0.41-2.36-0.63-0.58-0.213-0.937-0.353-1.07-0.42v0l-0.25-0.45c0.033-0.167 0.093-0.543 0.18-1.13 0.08-0.58 0.163-1.397 0.25-2.45 0.08-1.047 0.12-2.103 0.12-3.17v0l2.25-0.2c0 1.8 0.143 3.14 0.43 4.02 0.28 0.887 0.77 1.497 1.47 1.83 0.7 0.333 1.767 0.5 3.2 0.5v0c1.6 0 2.89-0.35 3.87-1.05 0.987-0.7 1.48-1.633 1.48-2.8v0c0-0.767-0.273-1.443-0.82-2.03-0.553-0.58-1.19-1.07-1.91-1.47-0.713-0.4-1.853-0.983-3.42-1.75v0c-2.133-1.033-3.773-2.05-4.92-3.05-1.153-1-1.73-2.283-1.73-3.85v0c0-1.4 0.427-2.667 1.28-3.8 0.847-1.133 2.02-2.017 3.52-2.65 1.5-0.633 3.167-0.95 5-0.95v0c1.1 0 2.133 0.067 3.1 0.2 0.967 0.133 1.733 0.273 2.3 0.42 0.567 0.153 0.917 0.263 1.05 0.33v0l0.2 0.35c-0.067 0.367-0.217 1.19-0.45 2.47-0.233 1.287-0.4 2.663-0.5 4.13v0l-1.95 0.2-0.3-0.2c0-0.1 0.017-0.307 0.05-0.62 0.033-0.32 0.05-0.713 0.05-1.18v0c0-1.3-0.343-2.21-1.03-2.73-0.68-0.513-1.887-0.77-3.62-0.77v0c-1.4 0-2.557 0.323-3.47 0.97-0.92 0.653-1.38 1.48-1.38 2.48v0c0 1 0.46 1.85 1.38 2.55 0.913 0.7 2.303 1.5 4.17 2.4v0c1.633 0.767 2.94 1.433 3.92 2 0.987 0.567 1.83 1.283 2.53 2.15 0.7 0.867 1.05 1.867 1.05 3v0c0 1.5-0.443 2.823-1.33 3.97-0.88 1.153-2.113 2.053-3.7 2.7-1.58 0.653-3.387 0.98-5.42 0.98zM109.95 0.2l0.35-2c1.333-0.1 2.277-0.267 2.83-0.5 0.547-0.233 0.897-0.627 1.05-1.18 0.147-0.547 0.22-1.503 0.22-2.87v0-16.55c-2.1 0.067-3.517 0.183-4.25 0.35-0.733 0.167-1.273 0.557-1.62 1.17-0.353 0.62-0.647 1.78-0.88 3.48v0l-2.35 0.15c0.067-0.433 0.177-1.393 0.33-2.88 0.147-1.48 0.237-2.937 0.27-4.37v0l0.4-0.35 3.55 0.4h12.75l3.65-0.4 0.4 0.35c0.033 1.467 0.117 2.917 0.25 4.35 0.133 1.433 0.233 2.35 0.3 2.75v0l-2.3 0.15c-0.267-1.733-0.573-2.927-0.92-3.58-0.353-0.647-0.87-1.053-1.55-1.22-0.687-0.167-1.997-0.283-3.93-0.35v0c-0.167 1.6-0.317 4.257-0.45 7.97-0.133 3.72-0.2 7.147-0.2 10.28v0c0 0.967 0.183 1.65 0.55 2.05 0.367 0.4 0.967 0.6 1.8 0.6v0c0.6 0 1.093-0.017 1.48-0.05 0.38-0.033 0.62-0.05 0.72-0.05v0l0.15 0.15-0.35 2.1c-0.467 0-1.333-0.023-2.6-0.07-1.267-0.053-2.5-0.08-3.7-0.08v0c-1.2 0-2.383 0.027-3.55 0.08-1.167 0.047-1.967 0.087-2.4 0.12zM138.6 0.65c-0.4-1.367-1.277-4.293-2.63-8.78-1.347-4.48-2.67-8.653-3.97-12.52v0c-0.267-0.767-0.673-1.333-1.22-1.7-0.553-0.367-1.313-0.567-2.28-0.6v0c0-0.033-0.033-0.083-0.1-0.15v0l0.3-1.9c0.367 0 1.017 0.017 1.95 0.05 0.933 0.033 1.85 0.05 2.75 0.05v0c1.233 0 2.477-0.06 3.73-0.18 1.247-0.113 2.053-0.187 2.42-0.22v0l0.15 0.3-0.2 1.8c-1.4 0.1-2.317 0.25-2.75 0.45-0.433 0.2-0.65 0.567-0.65 1.1v0c0 0.633 0.66 3.283 1.98 7.95 1.313 4.667 2.22 7.833 2.72 9.5v0h0.3c0.833-2.033 1.95-4.983 3.35-8.85v0c0.533-1.5 1.25-3.45 2.15-5.85v0c0 0-0.217-0.65-0.65-1.95v0c-0.233-0.733-0.623-1.25-1.17-1.55-0.553-0.3-1.347-0.483-2.38-0.55v0l-0.1-0.15 0.3-1.9c0.367 0 1.043 0.017 2.03 0.05 0.98 0.033 1.937 0.05 2.87 0.05v0c1.067 0 2.25-0.06 3.55-0.18 1.3-0.113 2.15-0.187 2.55-0.22v0l0.15 0.3-0.15 1.8c-1.4 0.1-2.323 0.25-2.77 0.45-0.453 0.2-0.68 0.567-0.68 1.1v0c0 0.567 0.66 3.19 1.98 7.87 1.313 4.687 2.22 7.88 2.72 9.58v0h0.35c1.067-2.6 2.367-6.043 3.9-10.33 1.533-4.28 2.3-6.687 2.3-7.22v0c0-0.467-0.19-0.8-0.57-1-0.387-0.2-1.063-0.3-2.03-0.3v0h-1.9l-0.1-0.2 0.3-1.9c0.367 0.033 1.143 0.083 2.33 0.15 1.18 0.067 2.303 0.1 3.37 0.1v0c1 0 1.927-0.017 2.78-0.05 0.847-0.033 1.403-0.05 1.67-0.05v0l-0.3 2.05c-0.767 0.067-1.307 0.217-1.62 0.45-0.32 0.233-0.613 0.733-0.88 1.5v0l-8.25 20.8-3.55 0.85c-0.067-0.4-0.59-2.25-1.57-5.55-0.987-3.3-2.047-6.683-3.18-10.15v0h-0.25l-5.45 14.85zM179.9 0.35l-0.15-0.25 0.15-1.8c1.4-0.1 2.343-0.25 2.83-0.45 0.48-0.2 0.72-0.533 0.72-1v0c0-0.533-0.117-1.1-0.35-1.7v0l-1.2-3.85c-0.667-0.033-2.05-0.05-4.15-0.05v0c-0.967 0-2.4 0.1-4.3 0.3v0l-1.4 3.7c-0.233 0.767-0.35 1.233-0.35 1.4v0c0 0.533 0.183 0.917 0.55 1.15 0.367 0.233 0.967 0.35 1.8 0.35v0h2.15l0.15 0.2-0.3 1.9c-0.333-0.033-1.09-0.083-2.27-0.15-1.187-0.067-2.347-0.1-3.48-0.1v0c-1.067 0-2.023 0.017-2.87 0.05-0.853 0.033-1.43 0.05-1.73 0.05v0l0.3-2.05c0.733-0.1 1.317-0.36 1.75-0.78 0.433-0.413 0.867-1.12 1.3-2.12v0l7.85-19.85 3.55-0.65 0.35 0.05c0 0.133 0.76 2.767 2.28 7.9 1.513 5.133 2.87 9.383 4.07 12.75v0c0.333 0.967 0.76 1.64 1.28 2.02 0.513 0.387 1.337 0.63 2.47 0.73v0l0.1 0.2-0.25 1.8c-0.333 0-0.95-0.017-1.85-0.05-0.9-0.033-1.8-0.05-2.7-0.05v0c-1.367 0-2.667 0.05-3.9 0.15-1.233 0.1-2.033 0.167-2.4 0.2zM174.25-10.8h3.4c1.167 0 2.383-0.067 3.65-0.2v0l-3.05-9.7h-0.35zM195.55 0.45l0.3-2.05c1-0.167 1.733-0.383 2.2-0.65 0.467-0.267 0.767-0.65 0.9-1.15 0.133-0.5 0.2-1.25 0.2-2.25v0-1.55c0-0.767-0.083-1.45-0.25-2.05-0.167-0.6-0.483-1.35-0.95-2.25v0l-3.75-7.2c-0.633-1.2-1.117-2.043-1.45-2.53-0.333-0.48-0.767-0.87-1.3-1.17-0.533-0.3-1.3-0.5-2.3-0.6v0l-0.1-0.2 0.3-1.8c0.3 0 0.91 0.017 1.83 0.05 0.913 0.033 1.87 0.05 2.87 0.05v0c0.933 0 2.067-0.043 3.4-0.13 1.333-0.08 2.2-0.137 2.6-0.17v0l0.15 0.3-0.15 1.65c-1.133 0.067-1.907 0.19-2.32 0.37-0.42 0.187-0.63 0.513-0.63 0.98v0c0 0.433 0.593 1.867 1.78 4.3 1.18 2.433 2.02 4.133 2.52 5.1v0h0.25l4.3-7.7c0.433-0.767 0.65-1.4 0.65-1.9v0c0-0.633-0.817-1-2.45-1.1v0l-0.1-0.15 0.25-1.8c0.2 0 0.867 0.04 2 0.12 1.133 0.087 2.067 0.13 2.8 0.13v0c0.867 0 1.667-0.017 2.4-0.05 0.733-0.033 1.233-0.067 1.5-0.1v0l0.15 0.3-0.25 1.7c-0.9 0.2-1.6 0.467-2.1 0.8-0.5 0.333-0.94 0.767-1.32 1.3-0.387 0.533-1.013 1.517-1.88 2.95v0l-4.05 6.9c-0.367 0.7-0.6 1.467-0.7 2.3-0.1 0.833-0.15 2.333-0.15 4.5v0c0 0.867 0.133 1.467 0.4 1.8 0.267 0.333 0.75 0.5 1.45 0.5v0c0.433 0 0.843-0.017 1.23-0.05 0.38-0.033 0.637-0.05 0.77-0.05v0l0.1 0.15-0.4 2.1c-0.4-0.033-1.15-0.067-2.25-0.1-1.1-0.033-2.217-0.05-3.35-0.05v0c-0.867 0-1.85 0.06-2.95 0.18-1.1 0.113-1.817 0.203-2.15 0.27z" fill="#e8772e" fill-rule="nonzero" stroke="none" stroke-width="1" stroke-linecap="butt" stroke-linejoin="miter" stroke-miterlimit="10" stroke-dasharray="" stroke-dashoffset="0" font-family="none" font-weight="none" font-size="none" text-anchor="none" style="mix-blend-mode: normal" data-fill-palette-color="primary" opacity="1"></path><path transform="translate(0,36.1)" d="M3.4 0.5l0.3-2.3c1.3-0.2 2.193-0.593 2.68-1.18 0.48-0.58 0.72-1.587 0.72-3.02v0l0.05-21c0-1.067-0.123-1.783-0.37-2.15-0.253-0.367-0.747-0.55-1.48-0.55v0c-0.333 0-0.667 0.017-1 0.05-0.333 0.033-0.567 0.05-0.7 0.05v0l-0.1-0.2 0.35-2.2c0.4 0.033 1.15 0.067 2.25 0.1 1.1 0.033 2.217 0.05 3.35 0.05v0c0.9 0 1.927-0.057 3.08-0.17 1.147-0.12 1.903-0.213 2.27-0.28v0l-0.2 2.25c-1.1 0.133-1.857 0.35-2.27 0.65-0.42 0.3-0.67 0.65-0.75 1.05-0.087 0.4-0.18 1.383-0.28 2.95v0c-0.2 2.833-0.35 6.067-0.45 9.7-0.1 3.633-0.15 6.833-0.15 9.6v0c0 1.2 0.1 2.057 0.3 2.57 0.2 0.52 0.577 0.863 1.13 1.03 0.547 0.167 1.487 0.25 2.82 0.25v0c2.033 0 3.527-0.167 4.48-0.5 0.947-0.333 1.663-0.983 2.15-1.95 0.48-0.967 0.92-2.517 1.32-4.65v0l2.2-0.25 0.15 0.25c-0.1 0.533-0.307 1.733-0.62 3.6-0.32 1.867-0.597 3.833-0.83 5.9v0l-0.25 0.3c-0.967-0.067-2.96-0.157-5.98-0.27-3.013-0.12-5.503-0.18-7.47-0.18v0c-1.567 0-2.99 0.067-4.27 0.2-1.287 0.133-2.097 0.233-2.43 0.3zM38.9 0.45c-2.267 0-4.273-0.5-6.02-1.5-1.753-1-3.103-2.417-4.05-4.25-0.953-1.833-1.43-3.95-1.43-6.35v0c0-2.6 0.593-4.943 1.78-7.03 1.18-2.08 2.797-3.713 4.85-4.9 2.047-1.18 4.337-1.77 6.87-1.77v0c2.3 0 4.333 0.5 6.1 1.5 1.767 1 3.133 2.407 4.1 4.22 0.967 1.82 1.45 3.93 1.45 6.33v0c0 2.6-0.59 4.94-1.77 7.02-1.187 2.087-2.82 3.73-4.9 4.93-2.087 1.2-4.413 1.8-6.98 1.8zM40.1-1.95c2.433 0 4.4-0.877 5.9-2.63 1.5-1.747 2.25-4.07 2.25-6.97v0c0-2.2-0.357-4.133-1.07-5.8-0.72-1.667-1.737-2.95-3.05-3.85-1.32-0.9-2.847-1.35-4.58-1.35v0c-2.367 0-4.273 0.867-5.72 2.6-1.453 1.733-2.18 4.05-2.18 6.95v0c0 2.2 0.35 4.133 1.05 5.8 0.7 1.667 1.693 2.957 2.98 3.87 1.28 0.92 2.753 1.38 4.42 1.38zM68.7 0.45c-3.667 0-6.59-1.093-8.77-3.28-2.187-2.18-3.28-5.12-3.28-8.82v0c0-2.733 0.6-5.133 1.8-7.2 1.2-2.067 2.893-3.667 5.08-4.8 2.18-1.133 4.703-1.7 7.57-1.7v0c1.033 0 2.143 0.067 3.33 0.2 1.18 0.133 2.193 0.283 3.04 0.45 0.853 0.167 1.397 0.267 1.63 0.3v0l0.2 0.3c-0.033 0.167-0.123 0.557-0.27 1.17-0.153 0.62-0.303 1.42-0.45 2.4-0.153 0.987-0.263 2.03-0.33 3.13v0l-2.45 0.2c0-0.133 0.017-0.393 0.05-0.78 0.033-0.38 0.05-0.82 0.05-1.32v0c0-1.167-0.45-2.01-1.35-2.53-0.9-0.513-2.367-0.77-4.4-0.77v0c-2.967 0-5.24 0.823-6.82 2.47-1.587 1.653-2.38 4.047-2.38 7.18v0c0 3.367 0.783 6.023 2.35 7.97 1.567 1.953 3.683 2.93 6.35 2.93v0c0.933 0 1.783-0.1 2.55-0.3 0.767-0.2 1.377-0.4 1.83-0.6 0.447-0.2 0.72-0.333 0.82-0.4v0-4.4c0-0.833-0.14-1.383-0.42-1.65-0.287-0.267-0.863-0.4-1.73-0.4v0h-2.65l-0.1-0.2 0.4-2.2c0.133 0 0.757 0.017 1.87 0.05 1.12 0.033 2.263 0.05 3.43 0.05v0c0.767 0 1.527-0.027 2.28-0.08 0.747-0.047 1.22-0.087 1.42-0.12v0l0.2 1.1c-0.533 0.4-0.893 1.017-1.08 1.85-0.18 0.833-0.27 2.267-0.27 4.3v0c0 1.5 0.083 2.633 0.25 3.4v0l-0.25 0.4c-0.233 0.1-0.773 0.283-1.62 0.55-0.853 0.267-1.98 0.527-3.38 0.78-1.4 0.247-2.9 0.37-4.5 0.37zM85.55 0.45l0.25-2.05c1.267-0.233 2.117-0.577 2.55-1.03 0.433-0.447 0.65-1.22 0.65-2.32v0l0.05-15.9c0-0.833-0.1-1.393-0.3-1.68-0.2-0.28-0.6-0.42-1.2-0.42v0l-1.65 0.05-0.1-0.2 0.25-1.9c0.2 0 0.743 0.017 1.63 0.05 0.88 0.033 2.037 0.05 3.47 0.05v0c0.767 0 1.71-0.05 2.83-0.15 1.113-0.1 1.837-0.167 2.17-0.2v0l-0.2 2.05c-1.1 0.133-1.833 0.34-2.2 0.62-0.367 0.287-0.583 0.813-0.65 1.58v0c-0.133 2.667-0.257 5.617-0.37 8.85-0.12 3.233-0.18 5.733-0.18 7.5v0c0 1.067 0.117 1.783 0.35 2.15 0.233 0.367 0.7 0.55 1.4 0.55v0c0.467 0 0.893-0.017 1.28-0.05 0.38-0.033 0.637-0.067 0.77-0.1v0l0.1 0.2-0.35 2c-0.4 0-1.15-0.017-2.25-0.05-1.1-0.033-2.2-0.05-3.3-0.05v0c-0.9 0-1.873 0.06-2.92 0.18-1.053 0.113-1.747 0.203-2.08 0.27zM108.4 0.45c-1.167 0-2.24-0.1-3.22-0.3-0.987-0.2-1.77-0.41-2.35-0.63-0.587-0.213-0.947-0.353-1.08-0.42v0l-0.25-0.45c0.033-0.167 0.093-0.543 0.18-1.13 0.08-0.58 0.163-1.397 0.25-2.45 0.08-1.047 0.12-2.103 0.12-3.17v0l2.25-0.2c0 1.8 0.143 3.14 0.43 4.02 0.28 0.887 0.77 1.497 1.47 1.83 0.7 0.333 1.767 0.5 3.2 0.5v0c1.6 0 2.893-0.35 3.88-1.05 0.98-0.7 1.47-1.633 1.47-2.8v0c0-0.767-0.273-1.443-0.82-2.03-0.553-0.58-1.187-1.07-1.9-1.47-0.72-0.4-1.863-0.983-3.43-1.75v0c-2.133-1.033-3.773-2.05-4.92-3.05-1.153-1-1.73-2.283-1.73-3.85v0c0-1.4 0.427-2.667 1.28-3.8 0.847-1.133 2.02-2.017 3.52-2.65 1.5-0.633 3.167-0.95 5-0.95v0c1.1 0 2.133 0.067 3.1 0.2 0.967 0.133 1.733 0.273 2.3 0.42 0.567 0.153 0.917 0.263 1.05 0.33v0l0.2 0.35c-0.067 0.367-0.217 1.19-0.45 2.47-0.233 1.287-0.4 2.663-0.5 4.13v0l-1.95 0.2-0.3-0.2c0-0.1 0.017-0.307 0.05-0.62 0.033-0.32 0.05-0.713 0.05-1.18v0c0-1.3-0.34-2.21-1.02-2.73-0.687-0.513-1.897-0.77-3.63-0.77v0c-1.4 0-2.557 0.323-3.47 0.97-0.92 0.653-1.38 1.48-1.38 2.48v0c0 1 0.46 1.85 1.38 2.55 0.913 0.7 2.303 1.5 4.17 2.4v0c1.633 0.767 2.943 1.433 3.93 2 0.98 0.567 1.82 1.283 2.52 2.15 0.7 0.867 1.05 1.867 1.05 3v0c0 1.5-0.44 2.823-1.32 3.97-0.887 1.153-2.12 2.053-3.7 2.7-1.587 0.653-3.397 0.98-5.43 0.98zM127.3 0.2l0.35-2c1.333-0.1 2.277-0.267 2.83-0.5 0.547-0.233 0.897-0.627 1.05-1.18 0.147-0.547 0.22-1.503 0.22-2.87v0-16.55c-2.1 0.067-3.517 0.183-4.25 0.35-0.733 0.167-1.273 0.557-1.62 1.17-0.353 0.62-0.647 1.78-0.88 3.48v0l-2.35 0.15c0.067-0.433 0.177-1.393 0.33-2.88 0.147-1.48 0.237-2.937 0.27-4.37v0l0.4-0.35 3.55 0.4h12.75l3.65-0.4 0.4 0.35c0.033 1.467 0.117 2.917 0.25 4.35 0.133 1.433 0.233 2.35 0.3 2.75v0l-2.3 0.15c-0.267-1.733-0.573-2.927-0.92-3.58-0.353-0.647-0.87-1.053-1.55-1.22-0.687-0.167-1.997-0.283-3.93-0.35v0c-0.167 1.6-0.317 4.257-0.45 7.97-0.133 3.72-0.2 7.147-0.2 10.28v0c0 0.967 0.183 1.65 0.55 2.05 0.367 0.4 0.967 0.6 1.8 0.6v0c0.6 0 1.093-0.017 1.48-0.05 0.38-0.033 0.62-0.05 0.72-0.05v0l0.15 0.15-0.35 2.1c-0.467 0-1.333-0.023-2.6-0.07-1.267-0.053-2.5-0.08-3.7-0.08v0c-1.2 0-2.383 0.027-3.55 0.08-1.167 0.047-1.967 0.087-2.4 0.12zM148.15 0.45l0.25-2.05c1.267-0.233 2.117-0.577 2.55-1.03 0.433-0.447 0.65-1.22 0.65-2.32v0l0.05-15.9c0-0.833-0.1-1.393-0.3-1.68-0.2-0.28-0.6-0.42-1.2-0.42v0l-1.65 0.05-0.1-0.2 0.25-1.9c0.2 0 0.743 0.017 1.63 0.05 0.88 0.033 2.037 0.05 3.47 0.05v0c0.767 0 1.707-0.05 2.82-0.15 1.12-0.1 1.847-0.167 2.18-0.2v0l-0.2 2.05c-1.1 0.133-1.833 0.34-2.2 0.62-0.367 0.287-0.583 0.813-0.65 1.58v0c-0.133 2.667-0.26 5.617-0.38 8.85-0.113 3.233-0.17 5.733-0.17 7.5v0c0 1.067 0.117 1.783 0.35 2.15 0.233 0.367 0.7 0.55 1.4 0.55v0c0.467 0 0.893-0.017 1.28-0.05 0.38-0.033 0.637-0.067 0.77-0.1v0l0.1 0.2-0.35 2c-0.4 0-1.15-0.017-2.25-0.05-1.1-0.033-2.2-0.05-3.3-0.05v0c-0.9 0-1.877 0.06-2.93 0.18-1.047 0.113-1.737 0.203-2.07 0.27zM175.75 0.45c-3.767 0-6.75-1.083-8.95-3.25-2.2-2.167-3.3-5.117-3.3-8.85v0c0-2.633 0.607-4.993 1.82-7.08 1.22-2.08 2.92-3.703 5.1-4.87 2.187-1.167 4.663-1.75 7.43-1.75v0c1 0 2.04 0.067 3.12 0.2 1.087 0.133 2.003 0.283 2.75 0.45 0.753 0.167 1.23 0.267 1.43 0.3v0l0.2 0.3c-0.033 0.167-0.117 0.557-0.25 1.17-0.133 0.62-0.283 1.43-0.45 2.43-0.167 1-0.283 2.067-0.35 3.2v0l-2.5 0.15c0-0.1 0.017-0.333 0.05-0.7 0.033-0.367 0.05-0.783 0.05-1.25v0c0-2.333-1.867-3.5-5.6-3.5v0c-2.6 0-4.65 0.857-6.15 2.57-1.5 1.72-2.25 4.08-2.25 7.08v0c0 3.333 0.79 5.983 2.37 7.95 1.587 1.967 3.713 2.95 6.38 2.95v0c1.767 0 3.177-0.477 4.23-1.43 1.047-0.947 1.803-2.437 2.27-4.47v0l2.5-0.2c-0.1 0.4-0.273 1.3-0.52 2.7-0.253 1.4-0.43 2.717-0.53 3.95v0l-0.3 0.4c-0.2 0.067-0.673 0.223-1.42 0.47-0.753 0.253-1.763 0.497-3.03 0.73-1.267 0.233-2.633 0.35-4.1 0.35zM197.65 0.45c-1.167 0-2.243-0.1-3.23-0.3-0.98-0.2-1.763-0.41-2.35-0.63-0.58-0.213-0.937-0.353-1.07-0.42v0l-0.25-0.45c0.033-0.167 0.09-0.543 0.17-1.13 0.087-0.58 0.17-1.397 0.25-2.45 0.087-1.047 0.13-2.103 0.13-3.17v0l2.25-0.2c0 1.8 0.14 3.14 0.42 4.02 0.287 0.887 0.78 1.497 1.48 1.83 0.7 0.333 1.767 0.5 3.2 0.5v0c1.6 0 2.893-0.35 3.88-1.05 0.98-0.7 1.47-1.633 1.47-2.8v0c0-0.767-0.277-1.443-0.83-2.03-0.547-0.58-1.177-1.07-1.89-1.47-0.72-0.4-1.863-0.983-3.43-1.75v0c-2.133-1.033-3.777-2.05-4.93-3.05-1.147-1-1.72-2.283-1.72-3.85v0c0-1.4 0.423-2.667 1.27-3.8 0.853-1.133 2.03-2.017 3.53-2.65 1.5-0.633 3.167-0.95 5-0.95v0c1.1 0 2.133 0.067 3.1 0.2 0.967 0.133 1.733 0.273 2.3 0.42 0.567 0.153 0.917 0.263 1.05 0.33v0l0.2 0.35c-0.067 0.367-0.217 1.19-0.45 2.47-0.233 1.287-0.4 2.663-0.5 4.13v0l-1.95 0.2-0.3-0.2c0-0.1 0.017-0.307 0.05-0.62 0.033-0.32 0.05-0.713 0.05-1.18v0c0-1.3-0.34-2.21-1.02-2.73-0.687-0.513-1.897-0.77-3.63-0.77v0c-1.4 0-2.56 0.323-3.48 0.97-0.913 0.653-1.37 1.48-1.37 2.48v0c0 1 0.457 1.85 1.37 2.55 0.92 0.7 2.313 1.5 4.18 2.4v0c1.633 0.767 2.943 1.433 3.93 2 0.98 0.567 1.82 1.283 2.52 2.15 0.7 0.867 1.05 1.867 1.05 3v0c0 1.5-0.44 2.823-1.32 3.97-0.887 1.153-2.123 2.053-3.71 2.7-1.58 0.653-3.387 0.98-5.42 0.98z" fill="#e8772e" fill-rule="nonzero" stroke="none" stroke-width="1" stroke-linecap="butt" stroke-linejoin="miter" stroke-miterlimit="10" stroke-dasharray="" stroke-dashoffset="0" font-family="none" font-weight="none" font-size="none" text-anchor="none" style="mix-blend-mode: normal" data-fill-palette-color="primary" opacity="1"></path></g></svg></g></svg></g></svg></g></svg></g><g transform="matrix(1,0,0,1,0,0.3356434414668428)"><svg viewBox="0 0 230.91956773803534 134.25737658674188" height="134.25737658674188" width="230.91956773803534"><g><svg xmlns="http://www.w3.org/2000/svg" xmlns:xlink="http://www.w3.org/1999/xlink" version="1.1" x="0" y="0" viewBox="2.2882200000000026 20.18518 84.99234205489205 49.41481999999999" enable-background="new 0 0 90 90" xml:space="preserve" height="134.25737658674188" width="230.91956773803534" class="icon-icon-0" data-fill-palette-color="accent" id="icon-0"><g fill="#e8772e" data-fill-palette-color="accent"><path fill="#e8772e" d="M30.9 50.5C31.2 50.5 31.4 50.4 31.6 50.3 32.5 49.9 32.9 48.8 32.5 47.9 32.2 47.3 31.6 46.8 30.9 46.8 30.6 46.8 30.4 46.9 30.2 47 29.8 47.2 29.4 47.6 29.3 48 29.1 48.4 29.1 48.9 29.3 49.4 29.5 50.1 30.2 50.5 30.9 50.5M30.6 48.6L30.8 48.4H30.9C31 48.4 31.1 48.5 31.2 48.6 31.3 48.8 31.2 48.9 31 49S30.7 49 30.6 48.8z" data-fill-palette-color="accent"></path><path fill="#e8772e" d="M37.1 47.8C37.4 47.8 37.6 47.7 37.8 47.6 38.2 47.4 38.6 47 38.7 46.6 38.9 46.2 38.9 45.7 38.7 45.2 38.4 44.6 37.8 44.1 37.1 44.1 36.8 44.1 36.6 44.2 36.4 44.3 36 44.5 35.6 44.9 35.5 45.3 35.3 45.7 35.3 46.2 35.5 46.7 35.7 47.4 36.4 47.8 37.1 47.8M36.8 45.9L37 45.7H37.1C37.2 45.7 37.3 45.8 37.4 45.9V46.1L37.2 46.3C37 46.4 36.9 46.3 36.8 46.1 36.7 46 36.8 45.9 36.8 45.9" data-fill-palette-color="accent"></path><path fill="#e8772e" d="M43.3 45C43.6 45 43.8 44.9 44 44.8 44.9 44.4 45.3 43.3 44.9 42.4 44.6 41.8 44 41.3 43.3 41.3 43 41.3 42.8 41.4 42.6 41.5 42.2 41.7 41.8 42.1 41.7 42.5 41.5 42.9 41.5 43.4 41.7 43.9 41.9 44.6 42.5 45 43.3 45M43 43.1L43.2 42.9H43.3C43.4 42.9 43.5 43 43.6 43.1 43.7 43.3 43.6 43.4 43.4 43.5S43.1 43.5 43 43.3C42.9 43.2 42.9 43.1 43 43.1" data-fill-palette-color="accent"></path><path fill="#e8772e" d="M49.4 38.6C49.1 38.6 48.9 38.7 48.7 38.8 47.8 39.2 47.4 40.3 47.8 41.2 48.1 41.8 48.7 42.3 49.4 42.3 49.7 42.3 49.9 42.2 50.1 42.1 51 41.7 51.4 40.6 51 39.7 50.8 39.1 50.1 38.6 49.4 38.6M49.6 40.7C49.4 40.8 49.3 40.7 49.2 40.5S49.2 40.2 49.4 40.1H49.5C49.6 40.1 49.7 40.2 49.8 40.3 49.8 40.5 49.7 40.7 49.6 40.7" data-fill-palette-color="accent"></path><path fill="#e8772e" d="M55.6 39.5C55.9 39.5 56.1 39.4 56.3 39.3 56.7 39.1 57.1 38.7 57.2 38.3 57.4 37.9 57.4 37.4 57.2 36.9 56.9 36.3 56.3 35.8 55.6 35.8 55.3 35.8 55.1 35.9 54.9 36 54.5 36.2 54.1 36.6 54 37 53.8 37.4 53.8 37.9 54 38.4 54.3 39.1 54.9 39.5 55.6 39.5M55.3 37.6L55.5 37.4H55.6C55.7 37.4 55.8 37.5 55.9 37.6V37.8L55.7 38C55.5 38.1 55.4 38 55.3 37.8z" data-fill-palette-color="accent"></path><path fill="#e8772e" d="M61.8 36.7C62.1 36.7 62.3 36.6 62.5 36.5 63.4 36.1 63.8 35 63.4 34.1 63.1 33.5 62.5 33 61.8 33 61.5 33 61.3 33.1 61.1 33.2 60.7 33.4 60.3 33.8 60.2 34.2 60 34.6 60 35.1 60.2 35.6 60.4 36.3 61.1 36.7 61.8 36.7M61.5 34.8L61.7 34.6H61.8C61.9 34.6 62 34.7 62.1 34.8 62.2 35 62.1 35.1 61.9 35.2S61.6 35.2 61.5 35z" data-fill-palette-color="accent"></path><path fill="#e8772e" d="M68 33.9C68.3 33.9 68.5 33.8 68.7 33.7 69.6 33.3 70 32.2 69.6 31.3 69.3 30.7 68.7 30.2 68 30.2 67.7 30.2 67.5 30.3 67.3 30.4 66.9 30.6 66.5 31 66.4 31.4 66.2 31.8 66.2 32.3 66.4 32.8 66.6 33.5 67.3 33.9 68 33.9M67.8 31.9H67.9C68 31.9 68.1 32 68.2 32.1 68.3 32.3 68.2 32.4 68 32.5S67.7 32.5 67.6 32.3C67.6 32.1 67.7 31.9 67.8 31.9" data-fill-palette-color="accent"></path><path fill="#e8772e" d="M87.1 24.5C85.9 21.7 79.3 22.8 77.4 23.6L57 32.7 50.2 30.7 56.4 27.9 55.8 26.5 48 30.1 35.4 26.4 29.9 28.8 43 39 27.4 46 16 40.1 9.2 43.1 13 46.9 11.6 47.6 12.2 48.9 14.1 48 16.8 50.7 9.7 53.9 10.3 55.3 72.6 27.4 77.1 29.1 82.3 26.7 81.7 25.3 77 27.4 74.5 26.4 78 25C78.8 24.6 80.7 24.2 82.5 24.2 84.6 24.2 85.5 24.7 85.7 25.1 86.3 26.4 82.7 30 80.7 30.9L64 38.4 64.2 37.5 63.5 37.3 62.8 37.1 62.6 37.7 62.2 39.2 61.8 41 55.5 65 50.1 67.4 48.6 46.9 48.5 45.3 48.4 44.3 47.7 44.4 47 44.5V46L37 50.5C35.4 51.2 33.7 51.6 31.9 51.7L19.3 52V53.5L32 53.1C33.9 53 35.8 52.6 37.6 51.8L47.1 47.6 48.7 69.6 56.7 66 63.5 40.2 81.2 32.3C83.2 31.5 88.3 27.2 87.1 24.5M32.8 29.1L35.5 27.9 46 31 45 31.4 45.6 32.8 48.1 31.6 54.9 33.6 46.6 37.3 36.1 29.1 35.2 30.3 45 38 44.5 38.2zM15.5 47.4L18.3 46.1 17.7 44.8 14.4 46.3 11.8 43.6 16 41.7 25.7 46.7 18.2 50z" data-fill-palette-color="accent"></path><rect x="39.7" y="53.2" transform="matrix(-6.572195e-02 -0.9978 0.9978 -6.572195e-02 -0.1577 107.7518)" fill="#e8772e" width="21.4" height="1.5" data-fill-palette-color="accent"></rect><rect x="71.3" y="33.2" transform="matrix(-0.4152 -0.9097 0.9097 -0.4152 64.3651 123.8841)" fill="#e8772e" width="1.5" height="16" data-fill-palette-color="accent"></rect><rect x="18.1" y="58.9" transform="matrix(0.9131 -0.4076 0.4076 0.9131 -21.6073 17.9305)" fill="#e8772e" width="26.4" height="1.5" data-fill-palette-color="accent"></rect><rect x="25" y="13.2" transform="matrix(0.4084 0.9128 -0.9128 0.4084 39.1946 -8.0257)" fill="#e8772e" width="1.5" height="26" data-fill-palette-color="accent"></rect><rect x="14.5" y="22.9" transform="matrix(0.4084 0.9128 -0.9128 0.4084 41.8099 7.2827)" fill="#e8772e" width="1.5" height="26" data-fill-palette-color="accent"></rect><rect x="40.2" y="59" transform="matrix(-0.4084 -0.9128 0.9128 -0.4084 -2.3212 130.0058)" fill="#e8772e" width="1.5" height="13.4" data-fill-palette-color="accent"></rect><rect x="1.6" y="61.1" transform="matrix(0.9128 -0.4084 0.4084 0.9128 -24.1255 10.7898)" fill="#e8772e" width="23.3" height="1.5" data-fill-palette-color="accent"></rect><rect x="66.7" y="44.3" transform="matrix(-0.3978 -0.9175 0.9175 -0.3978 49.4788 130.1853)" fill="#e8772e" width="1.5" height="9.1" data-fill-palette-color="accent"></rect></g></svg></g></svg></g></svg></g><defs></defs></svg><rect width="395.52" height="80.73048194926052" fill="none" stroke="none" visibility="hidden"></rect></g></svg></g></svg>