<svg xmlns="http://www.w3.org/2000/svg" version="1.1" xmlns:xlink="http://www.w3.org/1999/xlink" xmlns:svgjs="http://svgjs.dev/svgjs" width="1500" height="526" viewBox="0 0 1500 526"><g transform="matrix(1,0,0,1,-0.9090909090909918,-0.34235479577921524)"><svg viewBox="0 0 396 139" data-background-color="#ffffff" preserveAspectRatio="xMidYMid meet" height="526" width="1500" xmlns="http://www.w3.org/2000/svg" xmlns:xlink="http://www.w3.org/1999/xlink"><g id="tight-bounds" transform="matrix(1,0,0,1,0.2400000000000091,0.09159742787477398)"><svg viewBox="0 0 395.52 138.81793442436623" height="138.81793442436623" width="395.52"><g><svg viewBox="0 0 395.52 138.81793442436623" height="138.81793442436623" width="395.52"><g><svg viewBox="0 0 395.52 138.81793442436623" height="138.81793442436623" width="395.52"><g id="textblocktransform"><svg viewBox="0 0 395.52 138.81793442436623" height="138.81793442436623" width="395.52" id="textblock"><g><svg viewBox="0 0 395.52 138.81793442436623" height="138.81793442436623" width="395.52"><g transform="matrix(1,0,0,1,0,0)"><svg width="395.52" viewBox="-2.564106172886445 -30.5985271339493 121.03876222746554 42.481665849905724" height="138.81793442436623" data-palette-color="#e8772e"><path d="M6.071-24.008v0l11.566-3.009c0.432-0.112 0.86-0.244 1.281-0.395 0.429-0.153 0.837-0.331 1.225-0.536v0c0.467-0.245 0.93-0.49 1.39-0.733 0.458-0.25 0.936-0.44 1.433-0.569v0c1.284-0.334 2.277-0.21 2.979 0.371 0.702 0.582 1.326 1.391 1.872 2.428v0l2.751 5.174c0.176 0.333 0.304 0.651 0.383 0.954v0c0.218 0.839 0.124 1.562-0.283 2.171-0.405 0.615-1.017 1.029-1.836 1.242v0c-0.71 0.185-1.326 0.107-1.848-0.232-0.527-0.331-1.02-0.782-1.478-1.351-0.45-0.565-0.923-1.127-1.421-1.687-0.495-0.553-1.072-0.982-1.729-1.286-0.65-0.299-1.449-0.326-2.397-0.079v0l-0.697 0.181 5.143 19.772c0.171 0.658 0.464 1.123 0.879 1.394 0.408 0.273 0.854 0.487 1.336 0.644 0.475 0.159 0.927 0.399 1.355 0.722 0.43 0.329 0.747 0.887 0.952 1.674v0c0.242 0.929 0.155 1.668-0.26 2.217-0.417 0.542-1.067 0.929-1.951 1.159v0l-12.407 3.227c-0.865 0.225-1.617 0.193-2.257-0.095-0.64-0.288-1.079-0.89-1.317-1.806v0c-0.2-0.768-0.19-1.394 0.028-1.878 0.21-0.489 0.49-0.923 0.839-1.303 0.349-0.38 0.636-0.785 0.862-1.216 0.234-0.426 0.262-0.978 0.086-1.655v0l-5.143-19.772-0.697 0.181c-0.948 0.247-1.633 0.659-2.055 1.237-0.426 0.586-0.724 1.242-0.893 1.969-0.168 0.732-0.313 1.459-0.435 2.179-0.121 0.727-0.32 1.365-0.598 1.913-0.279 0.541-0.771 0.903-1.474 1.086v0c-0.839 0.218-1.584 0.161-2.236-0.173-0.653-0.34-1.091-0.936-1.312-1.787v0c-0.079-0.303-0.123-0.643-0.131-1.02v0l-0.138-5.854c-0.021-1.193 0.135-2.208 0.468-3.046 0.332-0.844 1.139-1.433 2.423-1.767v0c0.465-0.121 0.931-0.18 1.4-0.178 0.474-0.006 0.949-0.02 1.426-0.04v0c0.49-0.024 0.978-0.068 1.464-0.133 0.491-0.073 0.975-0.171 1.452-0.295zM77.292-27.201v0c0.016-0.947 0.302-1.632 0.855-2.056 0.554-0.424 1.281-0.628 2.181-0.612v0l6.119 0.107c0.893 0.016 1.606 0.245 2.139 0.687 0.532 0.443 0.79 1.137 0.774 2.084v0c-0.013 0.747-0.189 1.287-0.529 1.621-0.333 0.334-0.785 0.686-1.358 1.056v0c-0.587 0.39-1.033 0.739-1.339 1.047-0.305 0.308-0.538 0.657-0.698 1.048-0.167 0.384-0.356 0.907-0.567 1.57v0l-5.597 18.176c-0.453 1.486-0.692 2.992-0.719 4.518v0c-0.012 0.693-0.206 1.283-0.581 1.77-0.375 0.48-0.936 0.714-1.682 0.701v0l-8.009-0.139c-0.733-0.013-1.279-0.272-1.637-0.779-0.351-0.5-0.521-1.089-0.509-1.769v0c0.009-0.533-0.032-1.054-0.123-1.562-0.091-0.508-0.209-1.014-0.354-1.517v0l-3.343-11.9-3.52 10.321c-0.19 0.557-0.35 1.131-0.48 1.721-0.124 0.585-0.191 1.177-0.201 1.777v0c-0.01 0.547-0.056 1.093-0.139 1.638-0.089 0.545-0.291 0.992-0.603 1.34-0.313 0.355-0.826 0.526-1.539 0.513v0l-8.039-0.14c-0.727-0.013-1.265-0.275-1.617-0.788-0.344-0.513-0.511-1.099-0.499-1.759v0c0.018-1.013-0.131-2.039-0.447-3.078v0l-6.016-20.368c-0.22-0.764-0.447-1.305-0.682-1.622-0.234-0.324-0.664-0.732-1.289-1.223v0c-0.605-0.471-1.064-0.905-1.377-1.304-0.32-0.392-0.473-0.995-0.459-1.808v0c0.016-0.947 0.302-1.632 0.856-2.056 0.554-0.424 1.281-0.628 2.181-0.612v0l12.538 0.218c0.913 0.016 1.636 0.242 2.168 0.678 0.533 0.429 0.791 1.127 0.774 2.094v0c-0.011 0.66-0.14 1.158-0.386 1.494-0.246 0.336-0.531 0.618-0.855 0.845-0.317 0.228-0.599 0.496-0.844 0.805-0.245 0.309-0.374 0.774-0.384 1.394v0c-0.006 0.327 0.022 0.654 0.083 0.981 0.061 0.321 0.139 0.649 0.233 0.985v0l3.401 12.031 4.534-13.414c-0.124-0.549-0.269-0.998-0.437-1.347-0.167-0.35-0.57-0.77-1.208-1.262v0c-0.494-0.375-0.848-0.718-1.062-1.028-0.221-0.311-0.326-0.789-0.315-1.436v0c0.016-0.933 0.308-1.615 0.875-2.045 0.561-0.43 1.281-0.638 2.162-0.622v0l11.598 0.201c0.893 0.016 1.609 0.245 2.148 0.688 0.539 0.443 0.8 1.137 0.784 2.084v0c-0.011 0.647-0.143 1.141-0.396 1.483-0.253 0.342-0.548 0.637-0.885 0.885-0.338 0.241-0.632 0.516-0.885 0.825-0.259 0.309-0.393 0.763-0.404 1.363v0c-0.005 0.313 0.022 0.637 0.083 0.971 0.061 0.334 0.132 0.659 0.214 0.974v0l3.318 12.21 4.036-12.972c0.07-0.219 0.128-0.435 0.171-0.647 0.044-0.213 0.067-0.429 0.072-0.649v0c0.01-0.58-0.175-1.06-0.556-1.44-0.387-0.38-0.773-0.784-1.159-1.21-0.393-0.434-0.582-1.014-0.569-1.74zM112.955-21.209v0c-0.217 0.818-0.543 1.384-0.978 1.696-0.435 0.312-0.905 0.539-1.412 0.68-0.513 0.14-0.978 0.334-1.396 0.582-0.418 0.248-0.718 0.717-0.901 1.406v0l-4.742 17.871c-0.171 0.644-0.178 1.205-0.022 1.681 0.155 0.482 0.587 0.818 1.295 1.006v0l1.228 0.325c1.218 0.323 2.23 0.33 3.036 0.02 0.8-0.312 1.485-0.775 2.055-1.389 0.562-0.61 1.083-1.234 1.563-1.872 0.48-0.638 0.991-1.148 1.533-1.528 0.549-0.379 1.216-0.464 2.002-0.255v0c0.805 0.214 1.418 0.621 1.838 1.222 0.426 0.603 0.528 1.323 0.306 2.161v0c-0.092 0.348-0.232 0.68-0.419 0.996v0l-3.216 5.53c-0.595 0.994-1.234 1.79-1.917 2.388-0.683 0.598-1.666 0.727-2.948 0.387v0c-0.496-0.132-0.972-0.327-1.427-0.586-0.456-0.259-0.907-0.506-1.355-0.742v0c-0.401-0.231-0.815-0.423-1.243-0.578-0.421-0.153-0.858-0.29-1.309-0.41v0l-15.252-4.047c-0.863-0.229-1.504-0.623-1.921-1.183-0.419-0.553-0.507-1.286-0.264-2.201v0c0.222-0.838 0.554-1.412 0.995-1.722 0.441-0.311 0.911-0.534 1.409-0.671 0.503-0.129 0.968-0.319 1.393-0.572 0.424-0.246 0.727-0.714 0.911-1.403v0l4.66-17.563c0.183-0.689 0.151-1.246-0.095-1.67-0.246-0.424-0.555-0.82-0.926-1.187-0.365-0.366-0.662-0.793-0.891-1.282-0.229-0.488-0.233-1.148-0.013-1.979v0c0.243-0.915 0.684-1.512 1.324-1.79 0.64-0.279 1.391-0.303 2.254-0.075v0l12.662 3.36c0.863 0.229 1.504 0.623 1.921 1.183 0.417 0.559 0.504 1.296 0.262 2.211z" opacity="1" transform="matrix(1,0,0,1,0,0)" fill="#e8772e" class="wordmark-text-0" data-fill-palette-color="primary" id="text-0"></path></svg></g></svg></g></svg></g></svg></g><g></g></svg></g><defs></defs></svg><rect width="395.52" height="138.81793442436623" fill="none" stroke="none" visibility="hidden"></rect></g></svg></g></svg>