<svg xmlns="http://www.w3.org/2000/svg" version="1.1" xmlns:xlink="http://www.w3.org/1999/xlink" xmlns:svgjs="http://svgjs.dev/svgjs" width="1500" height="1500" viewBox="0 0 1500 1500"><g transform="matrix(1,0,0,1,-0.7499999999998863,-0.7499540074303468)"><svg viewBox="0 0 280 280" data-background-color="#ffffff" preserveAspectRatio="xMidYMid meet" height="1500" width="1500" xmlns="http://www.w3.org/2000/svg" xmlns:xlink="http://www.w3.org/1999/xlink"><g id="tight-bounds" transform="matrix(1,0,0,1,0.13999999999998636,0.1399914147203276)"><svg viewBox="0 0 279.72 279.72" height="279.72" width="279.72"><g><svg viewBox="0 0 279.72 279.72" height="279.72" width="279.72"><g><svg viewBox="0 0 279.72 279.72" height="279.72" width="279.72"><g id="textblocktransform"><svg viewBox="0 0 279.72 279.72" height="279.72" width="279.72" id="textblock"><g><svg viewBox="0 0 279.72 279.72" height="279.72" width="279.72"><g transform="matrix(1,0,0,1,57.446704652707865,57.446704652707865)"><svg viewBox="0 0 164.8265906945843 164.8265906945843" height="164.8265906945843" width="164.8265906945843"><g id="icon-0"><circle r="82" cx="82.41329534729215" cy="82.41329534729215" fill="#e8772e" data-fill-palette-color="accent"></circle><svg xmlns="http://www.w3.org/2000/svg" xmlns:xlink="http://www.w3.org/1999/xlink" version="1.1" x="24.723988604187646" y="24.72398860418764" viewBox="8.501 19.179 82.99799999999999 61.641999999999996" enable-background="new 0 0 100 100" xml:space="preserve" height="115.378613486209" width="115.378613486209" class="icon-jxe-0" data-fill-palette-color="quaternary" id="jxe-0"><g fill="#ffffff" data-fill-palette-color="quaternary"><polygon points="91.494,49.999 91.498,49.995 84.972,43.469 84.968,43.473 60.673,19.179 54.147,25.705 78.441,49.999    54.146,74.295 60.672,80.821 84.968,56.526 84.973,56.531 91.499,50.005  " fill="#ffffff" data-fill-palette-color="quaternary"></polygon><polygon points="48.991,30.86 45.728,34.124 61.5,49.895 45.688,65.707 48.951,68.97 68.026,49.895  " fill="#ffffff" data-fill-palette-color="quaternary"></polygon><polygon points="47.786,56.531 54.312,50.005 54.307,49.999 54.311,49.995 47.785,43.469 47.781,43.473 23.486,19.179    16.96,25.705 41.254,49.999 16.959,74.295 23.485,80.821 47.781,56.526  " fill="#ffffff" data-fill-palette-color="quaternary"></polygon><polygon points="11.804,30.86 8.541,34.124 24.313,49.895 8.501,65.707 11.764,68.97 30.839,49.895  " fill="#ffffff" data-fill-palette-color="quaternary"></polygon></g></svg></g></svg></g><g id="text-0"><path d="M12.926 102.165v0c-0.359 1.014-0.946 1.736-1.762 2.168-0.809 0.433-1.734 0.466-2.773 0.098v0c-1.014-0.359-1.729-0.937-2.146-1.733-0.41-0.794-0.414-1.762-0.01-2.902v0l4.645-13.115c0.404-1.14 1.015-1.89 1.834-2.249 0.825-0.357 1.744-0.356 2.758 0.004v0c1.039 0.368 1.737 0.975 2.093 1.821 0.363 0.849 0.364 1.78 0.005 2.794v0c-0.245 0.691-0.516 1.215-0.814 1.572-0.3 0.364-0.602 0.642-0.905 0.835-0.307 0.183-0.581 0.372-0.82 0.565-0.237 0.187-0.421 0.464-0.551 0.832v0l0.453 0.47c0.213-0.017 0.52-0.069 0.922-0.155 0.408-0.084 0.954-0.108 1.64-0.071 0.686 0.036 1.555 0.24 2.606 0.613v0l8.801 3.116c0.83 0.294 1.411 0.849 1.742 1.665 0.325 0.814 0.33 1.664 0.016 2.552v0c-0.325 0.919-0.869 1.589-1.632 2.01-0.771 0.426-1.572 0.492-2.401 0.198v0l-8.801-3.117c-1.052-0.372-1.856-0.76-2.411-1.164-0.556-0.404-0.965-0.769-1.226-1.097-0.253-0.332-0.457-0.572-0.612-0.72v0l-0.659 0.109c-0.13 0.367-0.162 0.699-0.095 0.993 0.065 0.301 0.159 0.619 0.282 0.956 0.115 0.34 0.176 0.74 0.185 1.199 0.008 0.459-0.113 1.044-0.364 1.754z" fill="#e8772e" data-fill-palette-color="primary"></path><path d="M36.645 86.554v0c-0.489 0.89-1.121 1.44-1.895 1.65-0.784 0.213-1.562 0.108-2.334-0.316v0l-9.287-5.102c-0.813-0.447-1.352-1.065-1.616-1.854-0.267-0.783-0.157-1.62 0.332-2.509v0c0.485-0.884 1.126-1.414 1.92-1.591 0.795-0.177 1.581-0.052 2.359 0.376v0l0.592 0.325 0.296-0.539c-0.959-0.627-1.574-1.455-1.844-2.485-0.264-1.027-0.142-2.003 0.366-2.928v0c0.508-0.925 1.194-1.503 2.058-1.734 0.86-0.225 1.761-0.079 2.703 0.439v0c0.884 0.485 1.479 1.146 1.787 1.982 0.305 0.827 0.239 1.638-0.198 2.433v0c-0.362 0.66-0.821 1.125-1.376 1.395-0.555 0.27-1.095 0.395-1.621 0.375v0c-0.41 0.565-0.589 1.038-0.538 1.419 0.042 0.384 0.358 0.737 0.947 1.061v0l6.168 3.388c0.772 0.424 1.284 1.012 1.538 1.765 0.248 0.75 0.129 1.566-0.357 2.45z" fill="#e8772e" data-fill-palette-color="primary"></path><path d="M46.391 70.934v0c-0.909 1.2-2.105 1.833-3.589 1.898-1.478 0.069-3.048-0.513-4.709-1.747v0l-5.971-4.473c-0.739-0.56-1.145-1.226-1.219-1.998-0.073-0.772 0.191-1.554 0.792-2.348v0c0.568-0.75 1.238-1.2 2.009-1.349 0.767-0.144 1.52 0.064 2.26 0.624v0l5.384 4.08c1.286 0.974 2.312 0.955 3.079-0.058v0c0.377-0.498 0.446-0.973 0.206-1.425-0.24-0.452-0.652-0.898-1.235-1.34v0l-5.328-4.037c-0.67-0.507-1.056-1.167-1.158-1.978-0.101-0.802 0.129-1.572 0.689-2.311v0c0.585-0.771 1.262-1.198 2.033-1.281 0.772-0.073 1.493 0.144 2.162 0.652v0l8.446 6.399c0.82 0.621 1.336 1.303 1.549 2.046 0.207 0.739 0.001 1.518-0.621 2.338v0c-0.613 0.809-1.336 1.256-2.168 1.343-0.838 0.082-1.667-0.188-2.486-0.809v0l-0.442-0.335-0.347 0.458c0.996 0.755 1.545 1.639 1.646 2.652 0.1 1.003-0.228 2.003-0.982 2.999z" fill="#e8772e" data-fill-palette-color="primary"></path><path d="M60.873 55.166v0c-1.071 1.03-2.164 1.876-3.28 2.538-1.106 0.663-2.15 1.028-3.13 1.094-0.985 0.062-1.844-0.288-2.575-1.048v0c-0.638-0.664-0.966-1.407-0.983-2.23-0.017-0.823 0.308-1.556 0.977-2.198v0c0.417-0.401 0.901-0.741 1.453-1.02 0.562-0.279 1.14-0.589 1.737-0.929 0.601-0.335 1.18-0.771 1.736-1.306v0c0.499-0.48 0.808-0.828 0.926-1.045 0.114-0.221 0.096-0.409-0.053-0.564v0c-0.177-0.184-0.4-0.207-0.669-0.07-0.269 0.137-0.697 0.4-1.284 0.788v0l-1.986 1.28c-0.833 0.53-1.686 1.001-2.559 1.412-0.878 0.415-1.747 0.603-2.606 0.562-0.86-0.041-1.662-0.448-2.408-1.223v0c-1.016-1.056-1.338-2.332-0.966-3.827 0.371-1.495 1.449-3.1 3.231-4.814v0c1.027-0.988 2.045-1.771 3.055-2.35 1.01-0.579 1.943-0.903 2.8-0.972 0.862-0.064 1.577 0.2 2.145 0.79v0c0.63 0.616 0.952 1.29 0.966 2.023 0.014 0.732-0.25 1.359-0.793 1.881v0c-0.388 0.373-0.829 0.699-1.324 0.979-0.486 0.28-1.014 0.584-1.586 0.911-0.567 0.322-1.156 0.757-1.766 1.306v0c-0.445 0.372-0.763 0.724-0.954 1.058-0.187 0.329-0.199 0.578-0.036 0.748v0c0.182 0.189 0.46 0.168 0.835-0.062 0.38-0.226 0.931-0.583 1.654-1.073v0l1.943-1.281c1.176-0.804 2.185-1.364 3.028-1.681 0.838-0.321 1.607-0.385 2.307-0.19 0.695 0.199 1.424 0.696 2.188 1.49v0c0.787 0.819 1.209 1.733 1.265 2.741 0.061 1.004-0.202 2.04-0.788 3.108-0.582 1.072-1.415 2.13-2.5 3.174z" fill="#e8772e" data-fill-palette-color="primary"></path><path d="M75.819 42.762v0c-0.929 0.653-1.919 1.033-2.97 1.139-1.045 0.102-2.056-0.091-3.033-0.58-0.967-0.487-1.821-1.259-2.563-2.315v0l-3.269-4.652-0.889 0.822c-0.478 0.442-1.075 0.587-1.791 0.433-0.711-0.158-1.302-0.572-1.773-1.243v0c-0.471-0.671-0.657-1.362-0.557-2.073 0.102-0.72 0.442-1.23 1.019-1.53v0l1.075-0.558-1.297-1.775c-0.511-0.692-0.7-1.393-0.566-2.104 0.134-0.71 0.605-1.349 1.413-1.917v0c0.814-0.572 1.586-0.806 2.315-0.703 0.73 0.103 1.323 0.52 1.779 1.252v0l1.214 1.833 1.275-1.167c0.851-0.812 1.691-1.147 2.521-1.008 0.835 0.136 1.488 0.54 1.959 1.211v0c0.471 0.671 0.635 1.418 0.492 2.242-0.144 0.824-0.719 1.495-1.727 2.014v0l-1.604 0.857 2.765 3.934c0.162 0.231 0.387 0.381 0.674 0.451 0.291 0.075 0.524-0.003 0.699-0.233v0c0.214-0.257 0.387-0.601 0.521-1.031 0.129-0.436 0.422-0.814 0.878-1.135v0c0.687-0.483 1.389-0.607 2.105-0.37 0.722 0.232 1.336 0.708 1.842 1.428v0c0.394 0.561 0.577 1.242 0.548 2.043-0.038 0.799-0.305 1.611-0.801 2.436-0.496 0.825-1.248 1.591-2.254 2.299z" fill="#e8772e" data-fill-palette-color="primary"></path><path d="M89.201 35.255v0c-1.133 0.512-2.227 0.557-3.281 0.134-1.052-0.417-2.258-1.347-3.618-2.79v0l-5.248-5.638c-0.589-0.634-0.94-1.386-1.054-2.257-0.111-0.865 0.194-1.626 0.915-2.284v0c0.659-0.63 1.384-0.936 2.175-0.916 0.79 0.019 1.484 0.354 2.081 1.006v0l5.677 6.12c0.658 0.721 1.197 1.155 1.618 1.304 0.424 0.155 0.845 0.042 1.263-0.339v0c0.349-0.32 0.474-0.738 0.374-1.253-0.104-0.506-0.609-1.241-1.515-2.203v0l-2.853-3.103c-0.603-0.649-0.953-1.406-1.048-2.27-0.089-0.867 0.223-1.628 0.938-2.283v0c0.659-0.63 1.384-0.936 2.174-0.916 0.79 0.019 1.484 0.354 2.082 1.006v0l5.876 6.416c0.364 0.381 0.796 0.684 1.296 0.908 0.506 0.221 0.986 0.133 1.441-0.264v0c0.356-0.323 0.5-0.72 0.434-1.192-0.057-0.468-0.299-0.938-0.725-1.409v0c-0.568-0.636-1.091-1.108-1.569-1.415-0.482-0.299-0.926-0.548-1.334-0.747-0.405-0.193-0.771-0.426-1.101-0.698-0.326-0.28-0.644-0.716-0.955-1.305v0c-0.328-0.611-0.447-1.225-0.356-1.841 0.087-0.622 0.329-1.189 0.725-1.7 0.393-0.502 0.904-0.896 1.535-1.181v0c0.962-0.435 1.886-0.469 2.775-0.103 0.882 0.368 1.518 0.984 1.908 1.847v0c0.141 0.312 0.278 0.745 0.41 1.298 0.132 0.553 0.219 1.081 0.263 1.585v0l0.209 3.767c0.061 0.821 0.099 1.67 0.112 2.549 0.01 0.888-0.059 1.73-0.207 2.528-0.148 0.797-0.411 1.514-0.788 2.148-0.373 0.626-0.925 1.104-1.653 1.434v0c-1.256 0.568-2.407 0.697-3.454 0.388-1.044-0.303-2.121-1.103-3.231-2.4v0l-0.294 0.133c0.294 1.335 0.324 2.527 0.09 3.577-0.234 1.05-0.929 1.836-2.087 2.359z" fill="#e8772e" data-fill-palette-color="primary"></path><path d="M111.738 26.452v0c-1.549 0.37-2.855 0.24-3.919-0.39-1.069-0.629-1.785-1.698-2.146-3.208v0c-0.36-1.504-0.121-2.718 0.715-3.644 0.844-0.921 2.051-1.568 3.62-1.943v0c0.922-0.22 1.777-0.356 2.567-0.407 0.781-0.056 1.504-0.042 2.166 0.042v0l0.088-0.021-0.112-0.471c-0.116-0.484-0.384-0.824-0.804-1.02-0.427-0.195-0.909-0.218-1.447-0.069v0c-0.523 0.125-0.96 0.264-1.31 0.417-0.352 0.146-0.781 0.36-1.288 0.639v0c-0.947 0.489-1.822 0.674-2.625 0.556-0.802-0.119-1.443-0.574-1.923-1.365v0c-0.464-0.843-0.585-1.609-0.362-2.298 0.221-0.695 0.666-1.303 1.336-1.822v0c0.572-0.469 1.238-0.904 1.999-1.308 0.754-0.401 1.602-0.715 2.544-0.939v0c2.746-0.656 4.922-0.472 6.528 0.553 1.605 1.019 2.78 3.088 3.526 6.206v0l1.165 4.873c0.205 0.856 0.114 1.631-0.273 2.326-0.389 0.687-1.044 1.141-1.966 1.361v0c-1.007 0.241-1.822 0.139-2.447-0.306-0.633-0.45-1.047-1.083-1.242-1.901v0l-0.173-0.726-0.628 0.151c0.131 0.549 0.166 1.128 0.104 1.737-0.067 0.617-0.363 1.186-0.888 1.705-0.53 0.528-1.466 0.952-2.805 1.272zM110.418 19.501v0c0.084 0.353 0.275 0.57 0.57 0.651 0.297 0.088 0.884 0.027 1.76-0.182v0c0.798-0.191 1.335-0.399 1.613-0.624 0.279-0.219 0.377-0.505 0.293-0.858v0c-0.081-0.34-0.294-0.538-0.64-0.593-0.347-0.062-0.919 0.002-1.716 0.192v0c-0.876 0.209-1.428 0.414-1.657 0.614-0.23 0.193-0.305 0.46-0.223 0.8z" fill="#e8772e" data-fill-palette-color="primary"></path><path d="M131.979 29.71v0c-1.441 0.108-2.635-0.041-3.582-0.449-0.947-0.401-1.707-0.967-2.281-1.699v0c-0.479-0.638-0.773-1.32-0.882-2.047-0.108-0.727-0.026-1.417 0.249-2.071 0.274-0.654 0.72-1.18 1.337-1.576v0c0.643-0.412 1.299-0.606 1.968-0.583 0.669 0.024 1.298 0.226 1.886 0.607 0.594 0.373 1.064 0.881 1.408 1.522v0c0.382 0.686 0.749 1.184 1.104 1.494 0.36 0.303 0.801 0.341 1.322 0.113v0c0.503-0.213 0.655-0.7 0.457-1.46-0.199-0.767-0.553-1.66-1.061-2.68v0l-1.186 0.089c-0.925 0.069-1.875-0.193-2.85-0.787-0.975-0.594-1.828-1.588-2.559-2.982v0l-3.093-5.915c-0.481-0.934-0.585-1.823-0.312-2.666 0.267-0.842 0.829-1.478 1.687-1.906v0c0.783-0.43 1.586-0.513 2.408-0.252 0.815 0.262 1.49 0.902 2.024 1.921v0l2.872 5.517c0.478 0.894 0.974 1.528 1.487 1.9 0.513 0.373 1.027 0.398 1.542 0.076v0c0.457-0.29 0.688-0.668 0.694-1.134 0.005-0.465-0.261-1.012-0.801-1.638v0c-0.237-0.285-0.517-0.601-0.839-0.948-0.315-0.34-0.602-0.743-0.86-1.21-0.264-0.465-0.419-1-0.464-1.603v0c-0.076-1.012 0.203-1.869 0.838-2.57 0.641-0.709 1.518-1.105 2.631-1.188v0c1.012-0.076 1.847 0.185 2.505 0.782 0.665 0.597 1.036 1.412 1.114 2.444v0c0.055 0.731 0.028 1.541-0.08 2.432-0.108 0.898-0.241 1.73-0.399 2.497v0l-1.676 8.639c-0.253 1.293-0.619 2.476-1.099 3.55-0.479 1.067-1.159 1.937-2.038 2.61-0.88 0.673-2.037 1.063-3.471 1.171z" fill="#e8772e" data-fill-palette-color="primary"></path><path d="M152.379 16.649l2.106-13.987c0.147-0.977 0.567-1.692 1.261-2.145 0.687-0.454 1.509-0.609 2.466-0.465v0c1.004 0.151 1.76 0.544 2.27 1.178 0.516 0.635 0.701 1.441 0.553 2.418v0l-2.047 13.598c-0.061 0.405 0.003 0.704 0.191 0.896 0.189 0.192 0.549 0.188 1.082-0.011v0c1.156-0.458 2.178-0.811 3.065-1.057 0.887-0.247 1.829-0.296 2.826-0.146v0c1.382 0.208 2.371 0.728 2.967 1.558 0.596 0.824 0.806 1.824 0.629 3.001v0c-0.189 1.256-0.714 2.166-1.573 2.73-0.861 0.57-2.119 0.731-3.774 0.482v0l-6.58-0.991c-1.409-0.212-2.554-0.554-3.434-1.027-0.887-0.473-1.504-1.181-1.852-2.124-0.354-0.944-0.406-2.246-0.156-3.908z" fill="#e8772e" data-fill-palette-color="primary"></path><path d="M178.712 28.641v0c-2.398-0.776-4.08-2.104-5.047-3.985-0.958-1.885-1.016-4.129-0.174-6.733v0c0.515-1.592 1.294-2.887 2.338-3.884 1.05-0.996 2.275-1.648 3.675-1.959 1.398-0.304 2.887-0.2 4.466 0.312v0c1.759 0.569 3.112 1.385 4.061 2.447 0.94 1.067 1.506 2.299 1.697 3.697 0.197 1.399 0.038 2.895-0.477 4.487v0c-0.842 2.603-2.146 4.406-3.912 5.41-1.757 1-3.966 1.069-6.627 0.208zM177.313 18.588v0c-0.205 0.633-0.032 1.18 0.519 1.641 0.55 0.461 1.596 0.94 3.137 1.438v0c1.535 0.497 2.66 0.719 3.376 0.669 0.716-0.051 1.176-0.393 1.381-1.026v0c0.199-0.614 0.022-1.148-0.531-1.602-0.554-0.448-1.599-0.92-3.134-1.417v0c-1.541-0.499-2.668-0.729-3.379-0.691-0.714 0.045-1.17 0.374-1.369 0.988z" fill="#e8772e" data-fill-palette-color="primary"></path><path d="M192.456 41.519v0c-1.173-0.599-2.103-1.232-2.788-1.9-0.689-0.661-1.274-1.443-1.757-2.345v0c-0.417-0.794-0.55-1.673-0.397-2.637 0.155-0.955 0.715-1.718 1.678-2.29v0c0.613-0.344 1.184-0.501 1.713-0.473 0.529 0.028 0.992 0.163 1.39 0.404 0.398 0.241 0.711 0.514 0.94 0.82v0c0.502 0.672 0.905 1.175 1.209 1.512 0.298 0.333 0.686 0.622 1.165 0.866v0c0.712 0.364 1.438 0.421 2.177 0.172 0.748-0.252 1.351-0.827 1.809-1.726v0l1.192-2.334-0.521-0.266c-0.651 0.95-1.447 1.555-2.387 1.815-0.946 0.257-1.973 0.102-3.08-0.463v0c-0.844-0.431-1.562-1.065-2.153-1.903-0.588-0.829-0.907-1.837-0.958-3.025-0.044-1.185 0.32-2.534 1.094-4.048v0c1.134-2.221 2.468-3.63 4.003-4.228 1.532-0.591 3.076-0.49 4.633 0.305v0c1.072 0.547 1.807 1.375 2.207 2.485 0.399 1.11 0.272 2.305-0.382 3.586v0l0.103 0.019 0.821-1.607c0.342-0.67 0.859-1.15 1.549-1.439 0.691-0.289 1.497-0.198 2.419 0.273v0c0.976 0.498 1.549 1.112 1.721 1.84 0.171 0.729 0.086 1.429-0.257 2.099v0l-4.598 9.074c-0.994 2.006-2.103 3.579-3.327 4.72-1.221 1.135-2.59 1.776-4.106 1.922-1.51 0.15-3.214-0.26-5.112-1.228zM197.86 25.679v0c-0.529 1.036-0.105 1.905 1.273 2.608v0c0.904 0.462 1.603 0.66 2.096 0.595 0.494-0.065 0.876-0.364 1.148-0.897v0c0.284-0.557 0.291-1.036 0.021-1.438-0.261-0.405-0.844-0.838-1.747-1.3v0c-0.652-0.333-1.21-0.482-1.674-0.447-0.46 0.029-0.832 0.322-1.117 0.879z" fill="#e8772e" data-fill-palette-color="primary"></path><path d="M216.961 23.892v0c0.512-0.765 1.165-1.226 1.957-1.383 0.787-0.161 1.602 0.042 2.446 0.606v0c0.894 0.598 1.406 1.277 1.536 2.036 0.125 0.755-0.07 1.518-0.586 2.289v0c-0.505 0.754-1.127 1.211-1.865 1.372-0.748 0.163-1.569-0.055-2.462-0.654v0c-0.877-0.587-1.391-1.263-1.543-2.027-0.149-0.755 0.023-1.502 0.517-2.239zM208.158 42.835v0c-0.843-0.565-1.314-1.215-1.411-1.952-0.099-0.746 0.083-1.465 0.547-2.158v0l6.149-9.181c0.516-0.771 1.13-1.241 1.842-1.411 0.707-0.174 1.482 0.022 2.326 0.586v0c0.838 0.561 1.319 1.207 1.444 1.938 0.12 0.727-0.067 1.459-0.561 2.197v0l-6.182 9.232c-0.464 0.693-1.07 1.127-1.82 1.305-0.752 0.168-1.529-0.017-2.334-0.556z" fill="#e8772e" data-fill-palette-color="primary"></path><path d="M218.933 51.93v0c-1.129-0.965-2.078-1.971-2.846-3.016-0.768-1.036-1.232-2.039-1.393-3.009-0.157-0.975 0.107-1.863 0.792-2.665v0c0.598-0.7 1.306-1.099 2.124-1.196 0.817-0.097 1.578 0.155 2.283 0.759v0c0.439 0.376 0.825 0.825 1.156 1.346 0.332 0.532 0.697 1.078 1.094 1.638 0.392 0.565 0.882 1.099 1.469 1.601v0c0.526 0.45 0.903 0.723 1.13 0.82 0.231 0.092 0.417 0.056 0.556-0.108v0c0.166-0.194 0.168-0.418 0.005-0.672-0.163-0.254-0.466-0.655-0.909-1.202v0l-1.468-1.852c-0.609-0.777-1.16-1.58-1.654-2.409-0.499-0.833-0.77-1.68-0.814-2.539-0.043-0.859 0.284-1.698 0.983-2.515v0c0.952-1.114 2.19-1.559 3.714-1.335 1.524 0.224 3.226 1.14 5.106 2.747v0c1.083 0.926 1.962 1.863 2.637 2.811 0.675 0.948 1.088 1.846 1.24 2.692 0.148 0.851-0.045 1.589-0.577 2.212v0c-0.552 0.687-1.191 1.073-1.919 1.158-0.727 0.086-1.377-0.116-1.95-0.605v0c-0.409-0.349-0.777-0.757-1.103-1.222-0.326-0.456-0.68-0.953-1.061-1.49-0.375-0.533-0.866-1.076-1.472-1.63v0c-0.413-0.406-0.795-0.689-1.146-0.847-0.346-0.154-0.595-0.142-0.748 0.037v0c-0.17 0.199-0.123 0.474 0.144 0.825 0.261 0.356 0.671 0.87 1.228 1.542v0l1.465 1.809c0.915 1.092 1.571 2.041 1.968 2.849 0.401 0.803 0.539 1.562 0.414 2.277-0.13 0.711-0.554 1.485-1.27 2.324v0c-0.738 0.863-1.606 1.372-2.605 1.526-0.993 0.159-2.05-0.002-3.17-0.481-1.124-0.475-2.258-1.201-3.403-2.18z" fill="#e8772e" data-fill-palette-color="primary"></path><path d="M232.735 65.597v0c-0.741-0.861-1.215-1.81-1.423-2.846-0.204-1.031-0.11-2.055 0.282-3.074 0.391-1.01 1.075-1.935 2.054-2.776v0l4.311-3.708-0.904-0.804c-0.487-0.432-0.689-1.012-0.606-1.74 0.088-0.723 0.443-1.351 1.065-1.886v0c0.622-0.535 1.291-0.787 2.008-0.757 0.727 0.031 1.268 0.32 1.622 0.866v0l0.66 1.015 1.64-1.464c0.639-0.576 1.319-0.832 2.039-0.768 0.72 0.064 1.402 0.47 2.045 1.219v0c0.649 0.754 0.957 1.5 0.926 2.236-0.032 0.736-0.389 1.367-1.072 1.892v0l-1.706 1.387 1.286 1.155c0.891 0.768 1.307 1.571 1.248 2.411-0.054 0.844-0.392 1.534-1.014 2.068v0c-0.622 0.535-1.35 0.771-2.184 0.708-0.834-0.063-1.558-0.57-2.173-1.522v0l-1.008-1.513-3.647 3.135c-0.214 0.184-0.342 0.422-0.382 0.715-0.046 0.297 0.054 0.521 0.299 0.673v0c0.277 0.188 0.635 0.327 1.077 0.417 0.446 0.086 0.851 0.341 1.215 0.764v0c0.548 0.637 0.739 1.323 0.574 2.059-0.161 0.741-0.575 1.398-1.242 1.973v0c-0.52 0.447-1.18 0.695-1.979 0.744-0.799 0.04-1.633-0.147-2.503-0.56-0.87-0.413-1.705-1.086-2.508-2.019z" fill="#e8772e" data-fill-palette-color="primary"></path><path d="M255.183 60.523v0c0.761-0.518 1.539-0.701 2.333-0.55 0.79 0.146 1.47 0.638 2.04 1.478v0c0.605 0.889 0.826 1.71 0.663 2.463-0.167 0.747-0.633 1.382-1.4 1.903v0c-0.75 0.51-1.498 0.702-2.243 0.574-0.754-0.129-1.434-0.638-2.038-1.528v0c-0.593-0.873-0.817-1.692-0.672-2.457 0.144-0.756 0.583-1.384 1.317-1.883zM239.931 74.795v0c-0.571-0.839-0.763-1.619-0.578-2.338 0.187-0.729 0.625-1.327 1.315-1.796v0l9.137-6.213c0.767-0.522 1.513-0.728 2.237-0.619 0.721 0.103 1.366 0.575 1.937 1.414v0c0.567 0.834 0.772 1.613 0.614 2.338-0.161 0.719-0.609 1.328-1.342 1.827v0l-9.188 6.247c-0.689 0.469-1.415 0.645-2.176 0.529-0.76-0.125-1.412-0.588-1.956-1.389z" fill="#e8772e" data-fill-palette-color="primary"></path><path d="M246.895 87.261v0c-0.778-1.49-1.155-2.968-1.133-4.436 0.025-1.477 0.442-2.835 1.25-4.076 0.805-1.247 1.979-2.273 3.522-3.078v0c1.549-0.809 3.065-1.187 4.549-1.135 1.48 0.046 2.837 0.482 4.072 1.309 1.229 0.829 2.237 1.998 3.024 3.505v0c0.619 1.186 1.043 2.295 1.271 3.328 0.223 1.036 0.223 1.946 0.003 2.728-0.221 0.782-0.704 1.368-1.448 1.757v0c-0.9 0.47-1.722 0.607-2.469 0.413-0.746-0.194-1.343-0.721-1.791-1.578v0c-0.299-0.572-0.508-1.183-0.627-1.834-0.123-0.656-0.413-1.422-0.87-2.298v0c-0.379-0.727-0.812-1.279-1.296-1.655-0.491-0.373-1.04-0.401-1.647-0.084v0c-0.632 0.33-0.955 0.813-0.972 1.451-0.022 0.641 0.157 1.325 0.537 2.052v0c0.308 0.59 0.623 1.055 0.944 1.395 0.331 0.343 0.646 0.664 0.946 0.962 0.303 0.304 0.574 0.686 0.814 1.144v0c0.507 0.971 0.603 1.838 0.289 2.602-0.323 0.76-0.923 1.369-1.799 1.826v0c-0.745 0.389-1.552 0.462-2.422 0.218-0.873-0.249-1.725-0.763-2.557-1.542-0.834-0.785-1.564-1.776-2.19-2.974z" fill="#e8772e" data-fill-palette-color="primary"></path><path d="M253.293 103.416v0c-0.483-1.405-0.79-2.753-0.922-4.044-0.135-1.283-0.027-2.382 0.326-3.3 0.359-0.92 1.037-1.551 2.036-1.894v0c0.871-0.299 1.683-0.284 2.436 0.047 0.753 0.331 1.281 0.935 1.583 1.812v0c0.188 0.547 0.292 1.129 0.313 1.748 0.017 0.627 0.054 1.282 0.111 1.966 0.051 0.686 0.202 1.395 0.453 2.125v0c0.225 0.655 0.411 1.081 0.558 1.28 0.153 0.196 0.331 0.259 0.534 0.189v0c0.242-0.083 0.357-0.275 0.345-0.577-0.011-0.302-0.069-0.801-0.173-1.497v0l-0.325-2.34c-0.13-0.979-0.198-1.95-0.203-2.916-0.007-0.971 0.189-1.838 0.587-2.6 0.399-0.763 1.107-1.319 2.124-1.669v0c1.386-0.476 2.678-0.232 3.877 0.735 1.199 0.966 2.201 2.619 3.006 4.958v0c0.463 1.347 0.745 2.601 0.845 3.761 0.1 1.16 0.001 2.143-0.297 2.949-0.305 0.808-0.845 1.346-1.62 1.612v0c-0.824 0.312-1.571 0.32-2.241 0.025-0.67-0.295-1.128-0.799-1.373-1.511v0c-0.175-0.508-0.285-1.046-0.331-1.614-0.05-0.559-0.102-1.166-0.157-1.822-0.053-0.65-0.2-1.367-0.442-2.151v0c-0.15-0.56-0.336-0.997-0.557-1.312-0.22-0.308-0.441-0.424-0.663-0.347v0c-0.248 0.085-0.346 0.347-0.296 0.784 0.045 0.44 0.137 1.09 0.277 1.952v0l0.344 2.301c0.234 1.405 0.318 2.556 0.249 3.454-0.062 0.895-0.328 1.62-0.799 2.173-0.473 0.546-1.231 0.999-2.273 1.357v0c-1.074 0.369-2.081 0.367-3.019-0.006-0.937-0.367-1.766-1.042-2.487-2.024-0.728-0.979-1.336-2.181-1.826-3.604z" fill="#e8772e" data-fill-palette-color="primary"></path><path d="M12.062 141.474c0-1.502 1.218-2.72 2.72-2.72 1.502 0 2.72 1.218 2.72 2.72 0 1.502-1.218 2.72-2.72 2.72-1.502 0-2.72-1.218-2.72-2.72z" fill="#e8772e" data-fill-palette-color="primary"></path><path d="M265.877 141.474c0-1.502 1.218-2.72 2.72-2.72 1.502 0 2.72 1.218 2.72 2.72 0 1.502-1.218 2.72-2.72 2.72-1.502 0-2.72-1.218-2.72-2.72z" fill="#e8772e" data-fill-palette-color="primary"></path></g><g id="text-1"><path d="M25.926 173.252v0c0.859-0.82 1.74-1.237 2.643-1.249 0.905-0.006 1.648 0.304 2.228 0.932v0c0.586 0.647 0.848 1.417 0.786 2.309-0.057 0.884-0.535 1.679-1.432 2.385v0c-0.448 0.356-0.993 0.685-1.637 0.986-0.641 0.308-1.253 0.619-1.834 0.935-0.575 0.314-1.024 0.667-1.346 1.059-0.316 0.39-0.383 0.855-0.201 1.396v0c0.184 0.548 0.521 0.885 1.01 1.012 0.496 0.124 1.067 0.138 1.715 0.041 0.654-0.099 1.328-0.226 2.021-0.381 0.695-0.148 1.328-0.216 1.899-0.202v0c1.146 0.034 2.007 0.382 2.585 1.046 0.586 0.668 0.841 1.437 0.764 2.306v0c-0.083 0.85-0.489 1.543-1.216 2.079-0.726 0.542-1.678 0.745-2.858 0.609v0c-0.606-0.073-1.212-0.231-1.819-0.474-0.608-0.249-1.238-0.531-1.889-0.844-0.657-0.311-1.365-0.602-2.122-0.872-0.759-0.277-1.594-0.482-2.504-0.616v0l-4.225 1.419c-0.669 0.225-1.31 0.163-1.923-0.184-0.611-0.341-1.041-0.884-1.291-1.629v0c-0.242-0.72-0.224-1.407 0.052-2.06 0.277-0.653 0.75-1.092 1.419-1.316v0l4.224-1.419c0.651-0.637 1.196-1.295 1.635-1.974 0.438-0.679 0.826-1.341 1.162-1.986 0.33-0.643 0.661-1.25 0.994-1.823 0.335-0.566 0.721-1.061 1.16-1.485z" fill="#e8772e" data-fill-palette-color="primary"></path><path d="M22.491 202.82v0c-0.912-1.814-1.102-3.531-0.57-5.152 0.538-1.624 1.791-2.931 3.761-3.922v0c1.213-0.61 2.401-0.895 3.565-0.855 1.169 0.037 2.236 0.369 3.199 0.999 0.972 0.632 1.759 1.546 2.359 2.741v0c0.67 1.333 0.966 2.572 0.887 3.718-0.07 1.148-0.454 2.173-1.152 3.073-0.689 0.903-1.641 1.66-2.854 2.269v0c-1.97 0.99-3.743 1.264-5.319 0.823-1.57-0.445-2.862-1.676-3.876-3.694zM27.473 196.322v0c-0.48 0.241-0.696 0.651-0.647 1.227 0.043 0.58 0.358 1.453 0.944 2.618v0c0.586 1.165 1.098 1.938 1.538 2.319 0.434 0.384 0.891 0.455 1.371 0.213v0c0.468-0.235 0.675-0.64 0.619-1.214-0.055-0.574-0.376-1.444-0.961-2.608v0c-0.586-1.165-1.092-1.941-1.52-2.328-0.428-0.387-0.876-0.463-1.344-0.227z" fill="#e8772e" data-fill-palette-color="primary"></path><path d="M29.826 215.431v0c-0.678-1.01-0.846-2.087-0.505-3.231 0.338-1.149 1.193-2.197 2.565-3.142v0l4.987-3.371c0.619-0.416 1.232-0.552 1.839-0.408 0.61 0.149 1.138 0.556 1.583 1.22v0c0.423 0.631 0.59 1.259 0.501 1.886-0.089 0.627-0.444 1.148-1.063 1.563v0l-4.521 3.034c-1.083 0.727-1.339 1.514-0.77 2.362v0c0.281 0.419 0.626 0.596 1.036 0.531 0.404-0.061 0.852-0.256 1.343-0.585v0l4.479-3.006c0.564-0.378 1.166-0.499 1.808-0.364 0.638 0.13 1.165 0.505 1.581 1.125v0c0.438 0.653 0.586 1.283 0.442 1.889-0.144 0.606-0.497 1.099-1.061 1.477v0l-7.099 4.764c-0.692 0.464-1.345 0.68-1.958 0.647-0.623-0.035-1.166-0.399-1.631-1.092v0c-0.453-0.675-0.603-1.344-0.448-2.006 0.153-0.653 0.575-1.212 1.267-1.676v0l0.368-0.247-0.264-0.394c-0.837 0.562-1.651 0.748-2.442 0.559-0.797-0.186-1.476-0.697-2.037-1.535z" fill="#e8772e" data-fill-palette-color="primary"></path><path d="M38.76 227.616v0c-0.535-0.621-0.771-1.256-0.709-1.904 0.063-0.648 0.361-1.203 0.896-1.664v0l6.478-5.579c0.565-0.487 1.183-0.722 1.854-0.706 0.666 0.021 1.266 0.342 1.801 0.963v0c0.531 0.616 0.753 1.25 0.666 1.902-0.096 0.651-0.414 1.208-0.953 1.673v0l-0.413 0.355 0.323 0.374c0.746-0.545 1.547-0.774 2.403-0.686 0.851 0.092 1.553 0.459 2.105 1.101v0c0.557 0.647 0.8 1.325 0.728 2.034-0.073 0.719-0.437 1.361-1.094 1.927v0c-0.616 0.531-1.282 0.793-1.996 0.788-0.71 0-1.304-0.278-1.783-0.833v0c-0.395-0.458-0.619-0.935-0.672-1.43-0.049-0.499 0.011-0.945 0.178-1.338v0c-0.313-0.467-0.62-0.735-0.92-0.804-0.304-0.075-0.66 0.063-1.067 0.413v0l-4.308 3.712c-0.535 0.461-1.121 0.681-1.758 0.662-0.642-0.024-1.228-0.344-1.759-0.96z" fill="#e8772e" data-fill-palette-color="primary"></path><path d="M58.949 247.204v0c-1.321-1.071-2.291-2.307-2.911-3.71-0.61-1.403-0.783-2.893-0.518-4.469 0.271-1.572 1.045-3.146 2.324-4.723v0c1.278-1.577 2.691-2.69 4.238-3.338 1.538-0.648 3.094-0.844 4.669-0.589 1.566 0.257 3.037 0.944 4.416 2.062v0c1.587 1.287 2.626 2.497 3.118 3.63 0.491 1.134 0.381 2.139-0.33 3.017v0c-0.546 0.674-1.18 1.081-1.901 1.223-0.721 0.142-1.397-0.043-2.029-0.555v0c-0.538-0.436-1.003-0.93-1.395-1.481-0.392-0.552-0.925-1.1-1.598-1.646v0c-0.867-0.703-1.749-1.007-2.647-0.913-0.908 0.095-1.689 0.547-2.346 1.356v0c-0.648 0.799-0.937 1.668-0.867 2.606 0.064 0.935 0.53 1.753 1.396 2.456v0c0.459 0.372 0.911 0.674 1.357 0.905 0.446 0.24 0.886 0.471 1.319 0.694 0.438 0.217 0.874 0.501 1.308 0.852v0c0.715 0.58 1.052 1.238 1.009 1.973-0.042 0.745-0.34 1.46-0.894 2.144v0c-0.559 0.689-1.26 1.042-2.104 1.058-0.843 0.026-1.751-0.199-2.723-0.676-0.967-0.472-1.931-1.098-2.891-1.876z" fill="#e8772e" data-fill-palette-color="primary"></path><path d="M70.827 255.597v0c-1.099-0.664-1.777-1.478-2.035-2.442-0.254-0.97-0.058-1.99 0.588-3.061v0c0.646-1.07 1.472-1.631 2.477-1.684 1.005-0.052 2.063 0.257 3.174 0.928v0c0.656 0.396 1.224 0.802 1.703 1.217 0.483 0.409 0.89 0.828 1.22 1.255v0l0.069 0.042 0.204-0.337c0.205-0.339 0.242-0.686 0.11-1.04-0.132-0.354-0.394-0.642-0.786-0.864v0c-0.374-0.226-0.704-0.394-0.991-0.504-0.287-0.11-0.657-0.232-1.111-0.365v0c-0.821-0.253-1.428-0.639-1.821-1.158-0.393-0.52-0.503-1.144-0.33-1.872v0c0.207-0.746 0.571-1.257 1.091-1.532 0.52-0.275 1.12-0.372 1.8-0.291v0c0.598 0.063 1.227 0.191 1.887 0.386 0.666 0.198 1.332 0.498 2 0.902v0c1.945 1.174 3.089 2.51 3.434 4.005 0.345 1.496-0.151 3.352-1.489 5.567v0l-2.09 3.461c-0.365 0.604-0.856 0.995-1.473 1.171-0.611 0.18-1.245 0.072-1.901-0.323v0c-0.713-0.431-1.124-0.954-1.232-1.569-0.102-0.611 0.021-1.204 0.369-1.78v0l0.312-0.517-0.449-0.271c-0.233 0.385-0.54 0.738-0.921 1.057-0.387 0.316-0.879 0.474-1.476 0.474-0.601 0.006-1.378-0.279-2.333-0.855zM74.001 250.848v0c-0.153 0.253-0.169 0.487-0.047 0.701 0.127 0.218 0.502 0.515 1.123 0.891v0c0.564 0.341 0.989 0.527 1.276 0.558 0.287 0.032 0.507-0.079 0.66-0.331v0c0.142-0.236 0.131-0.47-0.034-0.704-0.165-0.233-0.53-0.52-1.094-0.861v0c-0.621-0.375-1.057-0.571-1.305-0.588-0.243-0.013-0.436 0.098-0.579 0.334z" fill="#e8772e" data-fill-palette-color="primary"></path><path d="M84.395 263.077v0c-0.747-0.337-1.229-0.813-1.446-1.427-0.217-0.614-0.18-1.243 0.11-1.886v0l3.518-7.792c0.307-0.68 0.768-1.154 1.384-1.422 0.612-0.262 1.292-0.224 2.039 0.114v0c0.741 0.335 1.21 0.815 1.406 1.442 0.187 0.63 0.134 1.27-0.158 1.919v0l-0.224 0.497 0.45 0.203c0.446-0.809 1.076-1.354 1.889-1.636 0.81-0.276 1.601-0.239 2.373 0.109v0c0.778 0.351 1.284 0.864 1.518 1.537 0.238 0.682 0.178 1.419-0.178 2.21v0c-0.335 0.741-0.827 1.26-1.477 1.556-0.644 0.299-1.3 0.298-1.968-0.003v0c-0.551-0.249-0.956-0.586-1.213-1.013-0.255-0.432-0.389-0.862-0.403-1.288v0c-0.481-0.291-0.872-0.405-1.173-0.342-0.307 0.06-0.572 0.335-0.793 0.826v0l-2.34 5.182c-0.29 0.643-0.728 1.091-1.314 1.343-0.592 0.249-1.258 0.206-2-0.129z" fill="#e8772e" data-fill-palette-color="primary"></path><path d="M99.976 274.867v0c-1.013-0.319-1.838-0.696-2.477-1.13-0.63-0.438-1.198-0.984-1.704-1.637v0c-0.439-0.575-0.661-1.255-0.667-2.039-0.006-0.784 0.337-1.469 1.029-2.055v0c0.434-0.349 0.867-0.548 1.297-0.594 0.424-0.049 0.809-0.006 1.153 0.131 0.351 0.139 0.637 0.314 0.86 0.525v0c0.494 0.466 0.882 0.814 1.162 1.043 0.282 0.223 0.631 0.4 1.048 0.531v0c0.615 0.194 1.199 0.142 1.751-0.156 0.559-0.296 0.961-0.835 1.208-1.617v0l0.634-2.009-0.442-0.14c-0.392 0.842-0.947 1.428-1.665 1.759-0.711 0.332-1.547 0.347-2.509 0.043v0c-0.731-0.231-1.385-0.638-1.961-1.221-0.583-0.586-0.974-1.347-1.173-2.283-0.192-0.934-0.081-2.055 0.332-3.363v0c0.607-1.923 1.478-3.223 2.615-3.901 1.145-0.682 2.388-0.811 3.728-0.388v0c0.929 0.293 1.626 0.855 2.09 1.684 0.47 0.832 0.531 1.803 0.181 2.912v0l0.073 0.002 0.44-1.394c0.182-0.577 0.532-1.027 1.05-1.35 0.509-0.319 1.161-0.353 1.956-0.102v0c0.846 0.267 1.386 0.677 1.62 1.23 0.232 0.56 0.257 1.128 0.076 1.705v0l-2.45 7.832c-0.525 1.73-1.195 3.129-2.011 4.197-0.824 1.072-1.829 1.766-3.014 2.083-1.179 0.319-2.589 0.219-4.23-0.298zM102.158 261.548v0c-0.281 0.891 0.175 1.525 1.367 1.901v0c0.776 0.245 1.354 0.311 1.735 0.198 0.383-0.119 0.647-0.409 0.792-0.871v0c0.152-0.481 0.097-0.865-0.165-1.151-0.27-0.283-0.793-0.546-1.569-0.791v0c-0.564-0.178-1.028-0.226-1.393-0.143-0.36 0.091-0.616 0.377-0.767 0.857z" fill="#e8772e" data-fill-palette-color="primary"></path><path d="M118.462 273.926v0c-1.997-0.361-3.484-1.241-4.461-2.641-0.975-1.406-1.267-3.193-0.874-5.362v0c0.242-1.336 0.728-2.457 1.458-3.364 0.732-0.913 1.639-1.565 2.721-1.956 1.09-0.397 2.292-0.477 3.608-0.239v0c1.468 0.265 2.637 0.774 3.505 1.525 0.876 0.746 1.464 1.668 1.764 2.767 0.308 1.094 0.341 2.309 0.099 3.645v0c-0.392 2.169-1.238 3.751-2.538 4.746-1.299 0.988-3.059 1.281-5.282 0.879zM116.262 266.038v0c-0.096 0.529 0.102 0.947 0.592 1.255 0.49 0.314 1.376 0.587 2.659 0.819v0c1.283 0.232 2.209 0.287 2.778 0.164 0.567-0.116 0.899-0.439 0.995-0.968v0c0.093-0.516-0.106-0.924-0.599-1.224-0.492-0.301-1.38-0.567-2.662-0.799v0c-1.283-0.232-2.208-0.293-2.774-0.184-0.566 0.109-0.896 0.422-0.989 0.937z" fill="#e8772e" data-fill-palette-color="primary"></path><path d="M129.526 278.136v0c0.034-0.436 0.209-0.766 0.523-0.991 0.315-0.231 0.784-0.322 1.407-0.273v0c0.482 0.038 0.917 0.083 1.304 0.133 0.387 0.051 0.641 0.081 0.761 0.091v0l-0.11-1.162c-0.091 0.047-0.281 0.106-0.57 0.178-0.282 0.072-0.681 0.088-1.197 0.047v0c-0.851-0.067-1.571-0.38-2.161-0.939-0.596-0.559-0.858-1.308-0.784-2.247v0c0.074-0.931 0.438-1.664 1.094-2.199 0.649-0.535 1.449-0.765 2.401-0.69v0c0.958 0.076 1.714 0.408 2.267 0.998 0.554 0.583 0.785 1.461 0.693 2.633v0c-0.049 0.623-0.133 1.298-0.251 2.023-0.117 0.719-0.315 1.391-0.594 2.017-0.272 0.626-0.655 1.121-1.149 1.487-0.488 0.373-1.131 0.528-1.928 0.464v0c-0.623-0.049-1.072-0.216-1.346-0.5-0.275-0.278-0.395-0.635-0.36-1.07z" fill="#e8772e" data-fill-palette-color="primary"></path><path d="M153.897 275.313v0c-1.848 0.16-3.447-0.112-4.797-0.818-1.356-0.699-2.425-1.739-3.206-3.122-0.781-1.376-1.252-2.998-1.414-4.866v0c-0.161-1.855 0.024-3.531 0.555-5.027 0.531-1.503 1.403-2.723 2.617-3.658 1.208-0.928 2.736-1.472 4.585-1.633v0c1.855-0.161 3.454 0.112 4.797 0.818 1.344 0.713 2.407 1.764 3.188 3.154 0.781 1.383 1.252 3.001 1.413 4.856v0c0.162 1.868-0.023 3.547-0.554 5.037-0.531 1.497-1.398 2.705-2.599 3.626-1.201 0.927-2.729 1.472-4.585 1.633zM147.719 265.811v0c0.047 0.536 0.218 1.03 0.513 1.483 0.302 0.453 0.848 0.787 1.635 1.002 0.782 0.222 1.926 0.268 3.433 0.137v0c1.507-0.131 2.622-0.373 3.347-0.726 0.732-0.347 1.208-0.769 1.428-1.268 0.213-0.498 0.296-1.014 0.25-1.549v0c-0.048-0.556-0.219-1.044-0.511-1.464-0.3-0.419-0.839-0.73-1.619-0.932-0.773-0.203-1.913-0.239-3.42-0.108v0c-1.507 0.131-2.627 0.363-3.36 0.697-0.74 0.334-1.222 0.734-1.444 1.198-0.216 0.464-0.3 0.974-0.252 1.53z" fill="#e8772e" data-fill-palette-color="primary"></path><path d="M170.271 272.837v0c-1.185 0.274-2.252 0.048-3.2-0.678-0.954-0.725-1.629-1.896-2.023-3.516v0l-1.376-5.86c-0.168-0.727-0.077-1.348 0.273-1.863 0.356-0.517 0.924-0.866 1.703-1.046v0c0.74-0.171 1.387-0.103 1.941 0.203 0.554 0.307 0.915 0.823 1.083 1.55v0l1.226 5.304c0.294 1.27 0.938 1.79 1.934 1.56v0c0.491-0.114 0.779-0.373 0.865-0.779 0.087-0.4 0.064-0.887-0.07-1.464v0l-1.215-5.255c-0.153-0.661-0.052-1.268 0.304-1.819 0.349-0.55 0.887-0.909 1.613-1.077v0c0.766-0.177 1.407-0.091 1.923 0.259 0.516 0.35 0.85 0.856 1.003 1.517v0l1.926 8.33c0.188 0.812 0.157 1.499-0.093 2.06-0.255 0.569-0.788 0.948-1.6 1.136v0c-0.792 0.183-1.47 0.085-2.034-0.296-0.556-0.375-0.928-0.969-1.116-1.78v0l-0.099-0.432-0.462 0.106c0.227 0.982 0.111 1.809-0.347 2.481-0.457 0.678-1.177 1.131-2.159 1.359z" fill="#e8772e" data-fill-palette-color="primary"></path><path d="M184.838 268.821v0c-0.771 0.279-1.448 0.274-2.032-0.015-0.584-0.289-0.996-0.765-1.236-1.429v0l-2.911-8.038c-0.254-0.701-0.254-1.363 0-1.984 0.256-0.615 0.77-1.062 1.541-1.341v0c0.765-0.277 1.436-0.259 2.013 0.054 0.574 0.321 0.982 0.817 1.225 1.486v0l0.186 0.512 0.464-0.168c-0.244-0.891-0.173-1.721 0.213-2.49 0.389-0.763 0.981-1.288 1.778-1.577v0c0.803-0.291 1.523-0.276 2.16 0.044 0.646 0.324 1.117 0.893 1.412 1.708v0c0.277 0.765 0.286 1.48 0.027 2.145-0.253 0.663-0.724 1.12-1.413 1.37v0c-0.569 0.206-1.094 0.246-1.576 0.12-0.484-0.132-0.88-0.346-1.187-0.642v0c-0.547 0.127-0.907 0.318-1.079 0.573-0.178 0.258-0.176 0.639 0.007 1.145v0l1.937 5.346c0.24 0.664 0.238 1.29-0.006 1.879-0.251 0.591-0.758 1.025-1.523 1.302z" fill="#e8772e" data-fill-palette-color="primary"></path><path d="M207.314 251.675l-3.109 1.795 1.629 2.82c0.45 0.78 0.584 1.495 0.399 2.144-0.178 0.646-0.605 1.164-1.28 1.554v0l-0.017 0.01c-0.739 0.427-1.442 0.561-2.108 0.402-0.66-0.162-1.215-0.633-1.666-1.413v0l-1.835-3.178c-0.921-1.595-1.381-2.943-1.381-4.046 0.006-1.105 0.274-2.052 0.806-2.84v0l-0.361-0.362-0.384 0.222c-0.693 0.4-1.369 0.492-2.03 0.275-0.651-0.214-1.207-0.7-1.668-1.458v0c-0.445-0.744-0.596-1.468-0.451-2.172 0.144-0.704 0.563-1.256 1.255-1.657v0l5.929-3.423c1.519-0.877 3.018-1.137 4.497-0.78 1.482 0.363 2.788 1.522 3.917 3.478v0c0.813 1.409 1.208 2.663 1.184 3.764-0.028 1.095-0.353 2.043-0.977 2.845-0.618 0.799-1.401 1.472-2.349 2.02zM200.38 247.529l1.013 1.755c0.192 0.332 0.382 0.513 0.57 0.544 0.192 0.037 0.454-0.041 0.786-0.232v0l2.095-1.21c0.634-0.366 1.009-0.78 1.123-1.242 0.117-0.456 0.02-0.954-0.293-1.495v0c-0.313-0.541-0.694-0.872-1.144-0.993-0.45-0.121-0.992 0.002-1.627 0.369v0l-2.095 1.209c-0.332 0.192-0.536 0.368-0.614 0.53-0.074 0.167-0.012 0.422 0.186 0.765z" fill="#e8772e" data-fill-palette-color="primary"></path><path d="M220.644 250.173v0c-0.653 0.496-1.301 0.694-1.944 0.592-0.643-0.102-1.179-0.434-1.606-0.995v0l-5.176-6.804c-0.452-0.594-0.649-1.225-0.592-1.894 0.061-0.663 0.418-1.243 1.071-1.739v0c0.647-0.492 1.293-0.676 1.938-0.55 0.643 0.135 1.181 0.487 1.612 1.054v0l0.33 0.433 0.393-0.299c-0.499-0.778-0.678-1.591-0.539-2.44 0.143-0.844 0.552-1.522 1.226-2.035v0c0.679-0.517 1.371-0.718 2.075-0.603 0.713 0.116 1.332 0.519 1.857 1.209v0c0.492 0.647 0.714 1.327 0.666 2.04-0.044 0.709-0.357 1.285-0.94 1.729v0c-0.481 0.366-0.971 0.561-1.468 0.585-0.501 0.018-0.943-0.068-1.325-0.26v0c-0.485 0.284-0.771 0.574-0.859 0.869-0.093 0.299 0.023 0.663 0.348 1.091v0l3.443 4.525c0.427 0.562 0.612 1.16 0.555 1.795-0.063 0.639-0.418 1.205-1.065 1.697z" fill="#e8772e" data-fill-palette-color="primary"></path><path d="M218.926 230.367v0c-0.501-0.553-0.736-1.156-0.704-1.811 0.031-0.646 0.351-1.244 0.958-1.795v0c0.642-0.583 1.271-0.849 1.887-0.8 0.621 0.044 1.182 0.343 1.684 0.895v0c0.492 0.543 0.728 1.123 0.708 1.74-0.016 0.613-0.344 1.211-0.987 1.794v0c-0.632 0.574-1.262 0.845-1.888 0.815-0.627-0.03-1.179-0.31-1.658-0.838zM232.044 240.941v0c-0.607 0.551-1.209 0.793-1.805 0.725-0.596-0.067-1.122-0.352-1.579-0.854v0l-5.988-6.601c-0.501-0.553-0.75-1.121-0.745-1.706 0-0.59 0.304-1.161 0.911-1.712v0c0.602-0.546 1.202-0.796 1.799-0.747 0.593 0.043 1.128 0.328 1.607 0.856v0l6.023 6.638c0.456 0.503 0.676 1.065 0.66 1.688-0.011 0.618-0.305 1.189-0.883 1.713z" fill="#e8772e" data-fill-palette-color="primary"></path><path d="M240.927 231.854v0c-1.367 1.501-2.902 2.293-4.606 2.377-1.709 0.08-3.379-0.622-5.009-2.106v0c-1.004-0.914-1.696-1.921-2.075-3.022-0.385-1.105-0.456-2.22-0.213-3.344 0.242-1.134 0.813-2.196 1.713-3.185v0c1.005-1.103 2.056-1.823 3.154-2.16 1.097-0.346 2.191-0.355 3.281-0.025 1.09 0.32 2.137 0.937 3.142 1.851v0c1.63 1.484 2.521 3.041 2.673 4.671 0.147 1.625-0.539 3.272-2.06 4.943zM233.075 229.53v0c0.398 0.362 0.857 0.417 1.378 0.164 0.526-0.248 1.228-0.854 2.106-1.818v0c0.878-0.964 1.416-1.72 1.614-2.267 0.203-0.542 0.106-0.995-0.292-1.356v0c-0.388-0.353-0.839-0.401-1.355-0.144-0.516 0.257-1.213 0.868-2.091 1.832v0c-0.878 0.964-1.421 1.715-1.629 2.253-0.208 0.538-0.118 0.983 0.269 1.336z" fill="#e8772e" data-fill-palette-color="primary"></path><path d="M249.156 221.82v0c-0.475 0.668-1.035 1.049-1.68 1.144-0.644 0.094-1.254-0.063-1.829-0.473v0l-6.966-4.956c-0.608-0.432-0.984-0.976-1.128-1.631-0.139-0.651 0.03-1.311 0.504-1.98v0c0.471-0.663 1.034-1.03 1.687-1.101 0.655-0.062 1.272 0.113 1.853 0.526v0l0.444 0.316 0.286-0.403c-0.707-0.594-1.121-1.317-1.241-2.169-0.114-0.848 0.074-1.617 0.566-2.308v0c0.495-0.696 1.095-1.093 1.801-1.193 0.716-0.101 1.427 0.099 2.133 0.602v0c0.663 0.471 1.077 1.055 1.242 1.75 0.169 0.69 0.042 1.333-0.383 1.93v0c-0.351 0.493-0.76 0.825-1.227 0.995-0.473 0.167-0.92 0.215-1.342 0.146v0c-0.378 0.416-0.565 0.777-0.562 1.086 0 0.313 0.219 0.626 0.657 0.937v0l4.633 3.296c0.575 0.409 0.93 0.925 1.064 1.549 0.13 0.629-0.041 1.274-0.512 1.937z" fill="#e8772e" data-fill-palette-color="primary"></path><path d="M241.625 203.421v0c-0.643-0.379-1.047-0.885-1.211-1.521-0.162-0.626-0.035-1.292 0.381-1.998v0c0.44-0.747 0.961-1.189 1.564-1.325 0.606-0.142 1.231-0.024 1.874 0.354v0c0.631 0.372 1.029 0.855 1.193 1.451 0.167 0.59 0.031 1.259-0.408 2.006v0c-0.433 0.736-0.953 1.182-1.561 1.339-0.607 0.157-1.218 0.055-1.832-0.306zM257.294 209.615v0c-0.416 0.707-0.919 1.117-1.508 1.23-0.589 0.113-1.176-0.002-1.762-0.347v0l-7.68-4.521c-0.643-0.379-1.049-0.848-1.218-1.408-0.175-0.563-0.055-1.198 0.361-1.905v0c0.413-0.701 0.911-1.117 1.495-1.249 0.579-0.135 1.175-0.022 1.789 0.34v0l7.724 4.547c0.585 0.344 0.962 0.816 1.132 1.416 0.173 0.593 0.062 1.226-0.333 1.897z" fill="#e8772e" data-fill-palette-color="primary"></path><path d="M263.534 197.449v0c-0.392 0.833-0.935 1.495-1.627 1.987-0.692 0.491-1.476 0.761-2.353 0.808-0.877 0.048-1.786-0.15-2.729-0.594v0l-4.15-1.955-0.289 0.923c-0.163 0.503-0.523 0.842-1.082 1.017-0.564 0.173-1.144 0.119-1.74-0.162v0c-0.596-0.281-1.004-0.692-1.224-1.234-0.214-0.539-0.179-1.032 0.105-1.477v0l0.527-0.811-1.605-0.733c-0.641-0.28-1.055-0.694-1.242-1.243-0.193-0.552-0.12-1.189 0.221-1.913v0c0.341-0.724 0.79-1.196 1.347-1.416 0.548-0.217 1.131-0.162 1.749 0.166v0l1.575 0.798 0.424-1.327c0.276-0.902 0.735-1.474 1.376-1.715 0.638-0.234 1.255-0.211 1.851 0.069v0c0.596 0.281 1.008 0.739 1.236 1.374 0.228 0.635 0.096 1.334-0.397 2.097v0l-0.787 1.246 3.511 1.653c0.207 0.097 0.425 0.115 0.656 0.053 0.23-0.063 0.363-0.211 0.399-0.447v0c0.045-0.269 0.027-0.578-0.053-0.928-0.084-0.359-0.029-0.742 0.162-1.149v0c0.289-0.614 0.73-0.982 1.323-1.105 0.599-0.119 1.22-0.027 1.865 0.277v0c0.499 0.235 0.899 0.639 1.201 1.212 0.296 0.57 0.432 1.244 0.408 2.019-0.018 0.779-0.237 1.616-0.658 2.51z" fill="#e8772e" data-fill-palette-color="primary"></path><path d="M273.452 186.544v0c-0.362 1.105-0.84 1.949-1.434 2.532-0.588 0.585-1.244 0.979-1.967 1.181v0c-0.624 0.156-1.221 0.166-1.792 0.028-0.575-0.146-1.065-0.419-1.471-0.821-0.41-0.41-0.665-0.907-0.763-1.491v0c-0.114-0.603-0.058-1.151 0.166-1.643 0.225-0.492 0.57-0.899 1.037-1.22 0.46-0.323 0.983-0.52 1.571-0.589v0c0.622-0.065 1.103-0.183 1.443-0.355 0.339-0.172 0.503-0.489 0.492-0.952v0c-0.004-0.44-0.321-0.703-0.951-0.789-0.63-0.086-1.4-0.098-2.312-0.036v0l-0.301 0.92c-0.232 0.709-0.72 1.334-1.463 1.876-0.743 0.542-1.746 0.871-3.008 0.988v0l-5.369 0.491c-0.85 0.068-1.546-0.128-2.088-0.588-0.542-0.46-0.843-1.075-0.903-1.845v0c-0.076-0.718 0.111-1.343 0.561-1.874 0.448-0.525 1.132-0.832 2.052-0.92v0l5.003-0.441c0.811-0.081 1.434-0.255 1.868-0.523 0.434-0.268 0.611-0.645 0.53-1.131v0c-0.079-0.429-0.289-0.717-0.629-0.864-0.347-0.149-0.838-0.119-1.473 0.091v0c-0.284 0.091-0.604 0.202-0.958 0.333-0.354 0.132-0.745 0.223-1.172 0.274-0.427 0.051-0.874 0-1.339-0.152v0c-0.773-0.253-1.326-0.724-1.659-1.413-0.331-0.695-0.355-1.474-0.073-2.337v0c0.253-0.773 0.706-1.314 1.359-1.624 0.645-0.305 1.363-0.328 2.155-0.068v0c0.562 0.184 1.161 0.451 1.796 0.8 0.633 0.356 1.213 0.712 1.74 1.068v0l5.922 3.913c0.892 0.582 1.663 1.217 2.315 1.904 0.65 0.694 1.089 1.47 1.316 2.33 0.228 0.86 0.161 1.842-0.201 2.947z" fill="#e8772e" data-fill-palette-color="primary"></path></g></svg></g></svg></g></svg></g><g></g></svg></g><defs></defs></svg><rect width="279.72" height="279.72" fill="none" stroke="none" visibility="hidden"></rect></g></svg></g></svg>